<svg xmlns="http://www.w3.org/2000/svg" viewBox="0 0 750 388.44"><defs><style>.cls-1{fill:#f9b054;}.cls-2{fill:#e69e39;}.cls-3{fill:#ffd061;}.cls-4{fill:#ffc870;}</style></defs><title>beer-bg</title><g id="DESIGNED_BY_FREEPIK" data-name="DESIGNED BY FREEPIK"><rect class="cls-1" width="750" height="388.44"/><path class="cls-2" d="M1204.26,443.74a5.23,5.23,0,1,1-9.16-5c1.39-2.53,5.51-4.16,7.06-3.31C1204.29,436.57,1205.65,441.21,1204.26,443.74Z" transform="translate(-676.1 -111.56)"/><path class="cls-1" d="M1203.35,443.32a4,4,0,0,1-5.16,1.44c-1.69-.93-3.08-3.49-2.15-5.18s4.7-3.05,5.73-2.48C1203.2,437.87,1204.28,441.63,1203.35,443.32Z" transform="translate(-676.1 -111.56)"/><path class="cls-3" d="M1198.63,438.22a2.89,2.89,0,0,0-1.3,1.64.29.29,0,0,0,0,.2.3.3,0,0,0,.23.14,7.68,7.68,0,0,0,1.71.14h1.12a1.38,1.38,0,0,0,.77-.14c.68-.44.29-1.65-.26-2A2.43,2.43,0,0,0,1198.63,438.22Z" transform="translate(-676.1 -111.56)"/><path class="cls-2" d="M703.64,278.67a7.44,7.44,0,1,1-14.89,0c0-4.11,4-9,6.54-9C698.74,269.7,703.64,274.56,703.64,278.67Z" transform="translate(-676.1 -111.56)"/><path class="cls-1" d="M701.7,278.71a5.21,5.21,0,0,1-5,4.87c-2.51,0-5.69-2-5.69-4.56s3.43-6.42,5-6.42C698.12,272.6,701.7,276.2,701.7,278.71Z" transform="translate(-676.1 -111.56)"/><path class="cls-4" d="M692.82,275.64a4.12,4.12,0,0,0-.49,2.94.42.42,0,0,0,.11.25.42.42,0,0,0,.38,0,10.93,10.93,0,0,0,2.23-1l1.4-.75a2,2,0,0,0,.86-.71c.55-1-.78-2.26-1.72-2.37A3.46,3.46,0,0,0,692.82,275.64Z" transform="translate(-676.1 -111.56)"/><path class="cls-2" d="M742.84,279.15a7.44,7.44,0,1,1-14.89,0c0-4.11,4-9,6.54-9C737.94,270.18,742.84,275,742.84,279.15Z" transform="translate(-676.1 -111.56)"/><path class="cls-1" d="M740.9,279.18a5.21,5.21,0,0,1-5,4.87c-2.51,0-5.69-2-5.69-4.56s3.43-6.42,5-6.42C737.32,273.08,740.9,276.68,740.9,279.18Z" transform="translate(-676.1 -111.56)"/><path class="cls-4" d="M732,276.12a4.12,4.12,0,0,0-.49,2.94.42.42,0,0,0,.11.25.42.42,0,0,0,.38,0,10.94,10.94,0,0,0,2.23-1l1.4-.75a2,2,0,0,0,.86-.71c.55-1-.78-2.26-1.72-2.37A3.46,3.46,0,0,0,732,276.12Z" transform="translate(-676.1 -111.56)"/><path class="cls-2" d="M745.26,420.74a5.23,5.23,0,0,1-9.16-5c1.39-2.53,5.51-4.16,7.06-3.31C745.29,413.57,746.65,418.21,745.26,420.74Z" transform="translate(-676.1 -111.56)"/><path class="cls-1" d="M744.35,420.32a4,4,0,0,1-5.16,1.44c-1.69-.93-3.08-3.49-2.15-5.18s4.7-3.05,5.73-2.48C744.2,414.87,745.28,418.63,744.35,420.32Z" transform="translate(-676.1 -111.56)"/><path class="cls-3" d="M739.63,415.22a2.89,2.89,0,0,0-1.3,1.64.29.29,0,0,0,0,.2.3.3,0,0,0,.23.14,7.68,7.68,0,0,0,1.71.14h1.12a1.38,1.38,0,0,0,.77-.14c.68-.44.29-1.65-.26-2A2.43,2.43,0,0,0,739.63,415.22Z" transform="translate(-676.1 -111.56)"/><path class="cls-2" d="M676.1,490.73a5.22,5.22,0,0,0,9.16,0c.07-.13.14-.28.2-.42a5.58,5.58,0,0,0,.31-1.25,8.3,8.3,0,0,0-1.44-5.58,3.75,3.75,0,0,0-1.17-1.09l-.07,0c-1.59-.78-5.62.84-7,3.33Z" transform="translate(-676.1 -111.56)"/><path class="cls-1" d="M684.35,490.32a4,4,0,0,1-5.16,1.44c-1.69-.93-3.08-3.49-2.15-5.18s4.7-3.05,5.73-2.48C684.2,484.87,685.28,488.63,684.35,490.32Z" transform="translate(-676.1 -111.56)"/><path class="cls-3" d="M679.63,485.22a2.89,2.89,0,0,0-1.3,1.64.29.29,0,0,0,0,.2.3.3,0,0,0,.23.14,7.68,7.68,0,0,0,1.71.14h1.12a1.38,1.38,0,0,0,.77-.14c.68-.44.29-1.65-.26-2A2.43,2.43,0,0,0,679.63,485.22Z" transform="translate(-676.1 -111.56)"/><path class="cls-2" d="M730.15,485.73a5.23,5.23,0,1,1-9.16-5c1.39-2.53,5.51-4.16,7.06-3.31C730.17,478.56,731.54,483.2,730.15,485.73Z" transform="translate(-676.1 -111.56)"/><path class="cls-1" d="M729.24,485.31a4,4,0,0,1-5.16,1.44c-1.69-.93-3.08-3.49-2.15-5.18s4.7-3.05,5.73-2.48C729.09,479.86,730.17,483.62,729.24,485.31Z" transform="translate(-676.1 -111.56)"/><path class="cls-3" d="M724.51,480.21a2.9,2.9,0,0,0-1.3,1.64.29.29,0,0,0,0,.2.3.3,0,0,0,.23.14,7.68,7.68,0,0,0,1.71.14h1.12a1.38,1.38,0,0,0,.77-.14c.68-.44.29-1.65-.26-2A2.43,2.43,0,0,0,724.51,480.21Z" transform="translate(-676.1 -111.56)"/><path class="cls-2" d="M757.37,387.88a5.23,5.23,0,1,1-9.16-5c1.39-2.53,5.51-4.16,7.06-3.31C757.4,380.7,758.77,385.35,757.37,387.88Z" transform="translate(-676.1 -111.56)"/><path class="cls-1" d="M756.46,387.46a4,4,0,0,1-5.16,1.44c-1.69-.93-3.08-3.49-2.15-5.18s4.7-3.05,5.73-2.48C756.32,382,757.4,385.76,756.46,387.46Z" transform="translate(-676.1 -111.56)"/><path class="cls-3" d="M751.74,382.35a2.9,2.9,0,0,0-1.3,1.64.29.29,0,0,0,0,.2.3.3,0,0,0,.23.14,7.68,7.68,0,0,0,1.71.14h1.12a1.38,1.38,0,0,0,.77-.14c.68-.44.29-1.65-.26-2A2.43,2.43,0,0,0,751.74,382.35Z" transform="translate(-676.1 -111.56)"/><path class="cls-2" d="M699.88,476.86a5.23,5.23,0,1,1-9.16-5c1.39-2.53,5.51-4.16,7.06-3.31C699.91,469.69,701.28,474.33,699.88,476.86Z" transform="translate(-676.1 -111.56)"/><path class="cls-1" d="M699,476.44a4,4,0,0,1-5.16,1.44c-1.69-.93-3.08-3.49-2.15-5.18s4.7-3.05,5.73-2.48C698.83,471,699.91,474.75,699,476.44Z" transform="translate(-676.1 -111.56)"/><path class="cls-3" d="M694.25,471.34A2.89,2.89,0,0,0,693,473a.29.29,0,0,0,0,.2.3.3,0,0,0,.23.14,7.68,7.68,0,0,0,1.71.14H696a1.38,1.38,0,0,0,.77-.14c.68-.44.29-1.65-.26-2A2.43,2.43,0,0,0,694.25,471.34Z" transform="translate(-676.1 -111.56)"/><path class="cls-2" d="M676.1,451.42a4.52,4.52,0,0,0,.77.52,5.22,5.22,0,0,0,7.1-2.05,1.86,1.86,0,0,0,.1-.2,6,6,0,0,0,.4-3.26c-.25-2.07-1.27-4.16-2.6-4.89s-3.95.16-5.77,1.76Z" transform="translate(-676.1 -111.56)"/><path class="cls-1" d="M676.1,449.09a4.88,4.88,0,0,0,1.8,1.81,4,4,0,0,0,5.16-1.44c.93-1.69-.15-5.44-1.57-6.23-.94-.51-4.11.54-5.39,2Z" transform="translate(-676.1 -111.56)"/><path class="cls-3" d="M678.34,444.36A2.89,2.89,0,0,0,677,446a.29.29,0,0,0,0,.2.3.3,0,0,0,.23.14,7.68,7.68,0,0,0,1.71.14h1.12a1.38,1.38,0,0,0,.77-.14c.68-.44.29-1.65-.26-2A2.43,2.43,0,0,0,678.34,444.36Z" transform="translate(-676.1 -111.56)"/><path class="cls-2" d="M702.6,338.27a7.28,7.28,0,1,1-12.75-7c1.95-3.54,7.69-5.83,9.85-4.64C702.66,328.24,704.55,334.73,702.6,338.27Z" transform="translate(-676.1 -111.56)"/><path class="cls-1" d="M700.93,337.39a5.11,5.11,0,0,1-6.56,1.85c-2.15-1.18-3.91-4.45-2.72-6.61s6-3.91,7.3-3.19C700.75,330.44,702.12,335.23,700.93,337.39Z" transform="translate(-676.1 -111.56)"/><path class="cls-4" d="M694.77,330.57a4.07,4.07,0,0,0-1.81,2.3.31.31,0,0,0,.29.47,10.65,10.65,0,0,0,2.38.19h1.55a1.92,1.92,0,0,0,1.08-.21c1-.62.41-2.31-.35-2.85A3.38,3.38,0,0,0,694.77,330.57Z" transform="translate(-676.1 -111.56)"/><path class="cls-2" d="M714.87,377.67a7.28,7.28,0,1,1-8.7,11.67c-3.24-2.42-4.72-8.42-3.25-10.39C704.94,376.23,711.63,375.25,714.87,377.67Z" transform="translate(-676.1 -111.56)"/><path class="cls-1" d="M713.77,379.2a5.11,5.11,0,0,1,.93,6.76c-1.47,2-4.94,3.26-6.92,1.78s-3.05-6.46-2.15-7.67C706.86,378.42,711.79,377.73,713.77,379.2Z" transform="translate(-676.1 -111.56)"/><path class="cls-4" d="M706.16,384.36a4.07,4.07,0,0,0,2,2.11.41.41,0,0,0,.27.06c.13,0,.2-.16.24-.29a10.65,10.65,0,0,0,.52-2.33l.22-1.54a1.92,1.92,0,0,0-.06-1.09c-.48-1-2.24-.72-2.87,0A3.38,3.38,0,0,0,706.16,384.36Z" transform="translate(-676.1 -111.56)"/><path class="cls-2" d="M711.6,424.15a7.28,7.28,0,1,1-12.65-7.2c2-3.51,7.77-5.72,9.91-4.51C711.8,414.12,713.6,420.63,711.6,424.15Z" transform="translate(-676.1 -111.56)"/><path class="cls-1" d="M709.94,423.25a5.11,5.11,0,0,1-6.59,1.76c-2.13-1.21-3.84-4.5-2.62-6.65s6-3.83,7.34-3.08C709.86,416.29,711.16,421.1,709.94,423.25Z" transform="translate(-676.1 -111.56)"/><path class="cls-4" d="M703.88,416.33A4.07,4.07,0,0,0,702,418.6a.41.41,0,0,0,0,.27c0,.12.19.17.31.2a10.65,10.65,0,0,0,2.38.23l1.55,0a1.93,1.93,0,0,0,1.08-.19c1-.61.44-2.31-.31-2.86A3.38,3.38,0,0,0,703.88,416.33Z" transform="translate(-676.1 -111.56)"/><path class="cls-2" d="M682.65,226.65a7.28,7.28,0,1,1,14.23,3c-.84,4-5.68,7.8-8.09,7.29C685.48,236.27,681.8,230.6,682.65,226.65Z" transform="translate(-676.1 -111.56)"/><path class="cls-1" d="M684.5,227a5.11,5.11,0,0,1,5.75-3.66c2.4.51,5,3.13,4.51,5.54s-4.6,5.47-6.07,5.16C686.67,233.61,684,229.42,684.5,227Z" transform="translate(-676.1 -111.56)"/><path class="cls-4" d="M692.37,231.76a4.07,4.07,0,0,0,1.07-2.73.31.31,0,0,0-.42-.37,10.66,10.66,0,0,0-2.34.5l-1.49.44a1.92,1.92,0,0,0-1,.51c-.73.87.28,2.33,1.16,2.63A3.38,3.38,0,0,0,692.37,231.76Z" transform="translate(-676.1 -111.56)"/><path class="cls-2" d="M718.91,238.09a7.28,7.28,0,1,1-8.7,11.67c-3.24-2.42-4.72-8.42-3.25-10.39C709,236.65,715.67,235.67,718.91,238.09Z" transform="translate(-676.1 -111.56)"/><path class="cls-1" d="M717.81,239.63a5.11,5.11,0,0,1,.93,6.76c-1.47,2-4.94,3.26-6.92,1.78s-3.05-6.46-2.15-7.67C710.9,238.84,715.83,238.15,717.81,239.63Z" transform="translate(-676.1 -111.56)"/><path class="cls-4" d="M710.2,244.78a4.07,4.07,0,0,0,2,2.11.41.41,0,0,0,.27.06c.13,0,.2-.16.24-.29a10.66,10.66,0,0,0,.52-2.33l.22-1.54a1.92,1.92,0,0,0-.06-1.09c-.48-1-2.24-.72-2.87,0A3.38,3.38,0,0,0,710.2,244.78Z" transform="translate(-676.1 -111.56)"/><path class="cls-2" d="M727,188.64a7.28,7.28,0,1,1-8.7,11.67c-3.24-2.42-4.72-8.42-3.25-10.39C717,187.2,723.72,186.23,727,188.64Z" transform="translate(-676.1 -111.56)"/><path class="cls-1" d="M725.86,190.18a5.11,5.11,0,0,1,.93,6.76c-1.47,2-4.94,3.26-6.92,1.78s-3.05-6.46-2.15-7.67C719,189.4,723.88,188.71,725.86,190.18Z" transform="translate(-676.1 -111.56)"/><path class="cls-4" d="M718.25,195.34a4.07,4.07,0,0,0,2,2.11.41.41,0,0,0,.27.06c.13,0,.2-.16.24-.29a10.66,10.66,0,0,0,.52-2.33l.22-1.54a1.93,1.93,0,0,0-.06-1.09c-.48-1-2.24-.72-2.87,0A3.38,3.38,0,0,0,718.25,195.34Z" transform="translate(-676.1 -111.56)"/><path class="cls-2" d="M678.35,304.52a4.33,4.33,0,0,1-2.25,1.57v-8.41a4.09,4.09,0,0,1,1.33.63A4.43,4.43,0,0,1,678.35,304.52Z" transform="translate(-676.1 -111.56)"/><path class="cls-1" d="M677.33,303.35a3.76,3.76,0,0,1-1.23,1v-5.44a1.92,1.92,0,0,1,.66.31A3.1,3.1,0,0,1,677.33,303.35Z" transform="translate(-676.1 -111.56)"/><path class="cls-2" d="M721.59,213.14a4.43,4.43,0,1,1-5.3,7.1c-2-1.47-2.87-5.12-2-6.32C715.55,212.26,719.62,211.67,721.59,213.14Z" transform="translate(-676.1 -111.56)"/><path class="cls-1" d="M720.92,214.07a3.11,3.11,0,0,1,.57,4.11c-.89,1.2-3,2-4.21,1.08s-1.86-3.93-1.31-4.67C716.72,213.6,719.72,213.18,720.92,214.07Z" transform="translate(-676.1 -111.56)"/><path class="cls-4" d="M716.29,217.21a2.48,2.48,0,0,0,1.23,1.29.25.25,0,0,0,.16,0c.08,0,.12-.1.15-.17a6.48,6.48,0,0,0,.31-1.42l.14-.94a1.17,1.17,0,0,0,0-.67c-.29-.63-1.36-.44-1.75,0A2.05,2.05,0,0,0,716.29,217.21Z" transform="translate(-676.1 -111.56)"/><path class="cls-2" d="M750,463.12a4.43,4.43,0,1,1-5.3,7.1c-2-1.47-2.87-5.12-2-6.32C744,462.24,748,461.65,750,463.12Z" transform="translate(-676.1 -111.56)"/><path class="cls-1" d="M749.34,464.05a3.11,3.11,0,0,1,.57,4.11c-.89,1.2-3,2-4.21,1.08s-1.86-3.93-1.31-4.67C745.14,463.58,748.14,463.15,749.34,464.05Z" transform="translate(-676.1 -111.56)"/><path class="cls-4" d="M744.71,467.19a2.48,2.48,0,0,0,1.23,1.29.25.25,0,0,0,.16,0c.08,0,.12-.1.15-.17a6.48,6.48,0,0,0,.31-1.42l.14-.94a1.17,1.17,0,0,0,0-.67c-.29-.63-1.36-.44-1.75,0A2.05,2.05,0,0,0,744.71,467.19Z" transform="translate(-676.1 -111.56)"/><path class="cls-2" d="M718.16,290.94a4.43,4.43,0,1,1-5.3,7.1c-2-1.47-2.87-5.12-2-6.32C712.11,290.07,716.18,289.47,718.16,290.94Z" transform="translate(-676.1 -111.56)"/><path class="cls-1" d="M717.49,291.88a3.11,3.11,0,0,1,.57,4.11c-.89,1.2-3,2-4.21,1.08s-1.86-3.93-1.31-4.67C713.28,291.4,716.28,291,717.49,291.88Z" transform="translate(-676.1 -111.56)"/><path class="cls-4" d="M712.86,295a2.48,2.48,0,0,0,1.23,1.29.25.25,0,0,0,.16,0c.08,0,.12-.1.15-.17a6.48,6.48,0,0,0,.31-1.42l.14-.94a1.17,1.17,0,0,0,0-.67c-.29-.63-1.36-.44-1.75,0A2.05,2.05,0,0,0,712.86,295Z" transform="translate(-676.1 -111.56)"/><path class="cls-2" d="M697.16,192.94a4.43,4.43,0,1,1-5.3,7.1c-2-1.47-2.87-5.12-2-6.32C691.11,192.07,695.18,191.47,697.16,192.94Z" transform="translate(-676.1 -111.56)"/><path class="cls-1" d="M696.49,193.88a3.11,3.11,0,0,1,.57,4.11c-.89,1.2-3,2-4.21,1.08s-1.86-3.93-1.31-4.67C692.28,193.4,695.28,193,696.49,193.88Z" transform="translate(-676.1 -111.56)"/><path class="cls-4" d="M691.86,197a2.48,2.48,0,0,0,1.23,1.29.25.25,0,0,0,.16,0c.08,0,.12-.1.15-.17a6.48,6.48,0,0,0,.31-1.42l.14-.94a1.17,1.17,0,0,0,0-.67c-.29-.63-1.36-.44-1.75,0A2.05,2.05,0,0,0,691.86,197Z" transform="translate(-676.1 -111.56)"/><path class="cls-2" d="M676.47,327.48a5.38,5.38,0,0,1-.37.44v-6.15A4.42,4.42,0,0,1,676.47,327.48Z" transform="translate(-676.1 -111.56)"/><path class="cls-2" d="M717.29,168.66a4.43,4.43,0,1,1-7.06-5.34c1.48-2,5.14-2.84,6.34-1.93C718.21,162.63,718.78,166.7,717.29,168.66Z" transform="translate(-676.1 -111.56)"/><path class="cls-1" d="M716.36,168a3.11,3.11,0,0,1-4.11.54c-1.19-.9-2-3-1.06-4.22s3.94-1.83,4.67-1.28C716.87,163.79,717.27,166.79,716.36,168Z" transform="translate(-676.1 -111.56)"/><path class="cls-4" d="M713.25,163.34a2.48,2.48,0,0,0-1.29,1.23.25.25,0,0,0,0,.16c0,.08.1.12.17.15a6.48,6.48,0,0,0,1.42.32l.94.14a1.17,1.17,0,0,0,.67,0c.63-.29.45-1.36,0-1.75A2.05,2.05,0,0,0,713.25,163.34Z" transform="translate(-676.1 -111.56)"/><path class="cls-2" d="M713.45,144.13a4.43,4.43,0,1,1-7.06-5.34c1.48-2,5.14-2.84,6.34-1.94C714.36,138.09,714.93,142.16,713.45,144.13Z" transform="translate(-676.1 -111.56)"/><path class="cls-1" d="M712.52,143.45a3.11,3.11,0,0,1-4.11.54c-1.19-.9-2-3-1.06-4.22s3.94-1.83,4.67-1.28C713,139.25,713.42,142.25,712.52,143.45Z" transform="translate(-676.1 -111.56)"/><path class="cls-4" d="M709.41,138.8a2.48,2.48,0,0,0-1.29,1.23.25.25,0,0,0,0,.16c0,.08.1.12.17.15a6.48,6.48,0,0,0,1.42.32l.94.14a1.17,1.17,0,0,0,.67,0c.63-.29.45-1.36,0-1.75A2.05,2.05,0,0,0,709.41,138.8Z" transform="translate(-676.1 -111.56)"/><path class="cls-2" d="M720,339.12a4.43,4.43,0,1,1-5.3,7.1c-2-1.47-2.87-5.12-2-6.32C714,338.24,718,337.65,720,339.12Z" transform="translate(-676.1 -111.56)"/><path class="cls-1" d="M719.34,340.05a3.11,3.11,0,0,1,.57,4.11c-.89,1.2-3,2-4.21,1.08s-1.86-3.93-1.31-4.67C715.14,339.58,718.14,339.15,719.34,340.05Z" transform="translate(-676.1 -111.56)"/><path class="cls-4" d="M714.71,343.19a2.48,2.48,0,0,0,1.23,1.29.25.25,0,0,0,.16,0c.08,0,.12-.1.15-.17a6.48,6.48,0,0,0,.31-1.42l.14-.94a1.17,1.17,0,0,0,0-.67c-.29-.63-1.36-.44-1.75,0A2.05,2.05,0,0,0,714.71,343.19Z" transform="translate(-676.1 -111.56)"/><path class="cls-2" d="M686.69,374.54a4.43,4.43,0,1,1-5.3,7.1c-2-1.47-2.87-5.12-2-6.32C680.65,373.66,684.72,373.07,686.69,374.54Z" transform="translate(-676.1 -111.56)"/><path class="cls-1" d="M686,375.47a3.11,3.11,0,0,1,.57,4.11c-.89,1.2-3,2-4.21,1.08s-1.86-3.93-1.31-4.67C681.82,375,684.82,374.57,686,375.47Z" transform="translate(-676.1 -111.56)"/><path class="cls-4" d="M681.39,378.61a2.48,2.48,0,0,0,1.23,1.29.25.25,0,0,0,.16,0c.08,0,.12-.1.15-.17a6.48,6.48,0,0,0,.31-1.42l.14-.94a1.17,1.17,0,0,0,0-.67c-.29-.63-1.36-.44-1.75,0A2.05,2.05,0,0,0,681.39,378.61Z" transform="translate(-676.1 -111.56)"/><path class="cls-2" d="M735.9,319.75a7.28,7.28,0,1,1-12.75-7c1.95-3.54,7.69-5.83,9.85-4.64C736,309.71,737.85,316.2,735.9,319.75Z" transform="translate(-676.1 -111.56)"/><path class="cls-1" d="M734.22,318.87a5.11,5.11,0,0,1-6.56,1.85c-2.15-1.18-3.91-4.45-2.72-6.61s6-3.91,7.3-3.19C734,311.92,735.41,316.71,734.22,318.87Z" transform="translate(-676.1 -111.56)"/><path class="cls-4" d="M728.07,312a4.07,4.07,0,0,0-1.81,2.3.31.31,0,0,0,.29.47,10.65,10.65,0,0,0,2.38.19h1.55a1.93,1.93,0,0,0,1.08-.21c1-.62.41-2.31-.35-2.85A3.37,3.37,0,0,0,728.07,312Z" transform="translate(-676.1 -111.56)"/><path class="cls-2" d="M676.1,276.56v-5.72A7.28,7.28,0,0,1,676.1,276.56Z" transform="translate(-676.1 -111.56)"/><path class="cls-2" d="M676.1,407.45v7.32a6.33,6.33,0,0,0,6.7-3.19c1.7-3.08.06-8.72-2.52-10.14-.91-.5-2.54-.29-4.18.41v5.6Z" transform="translate(-676.1 -111.56)"/><path class="cls-1" d="M676.1,404.83v-.34c1.41-.63,2.91-.92,3.52-.58,1.58.86,2.76,5,1.73,6.91a4.49,4.49,0,0,1-5.25,1.82v-7.81Z" transform="translate(-676.1 -111.56)"/><path class="cls-4" d="M676.1,407.45h2a1.64,1.64,0,0,0,.93-.17c.83-.54.36-2-.31-2.48a2.88,2.88,0,0,0-2.62,0Z" transform="translate(-676.1 -111.56)"/><path class="cls-2" d="M748.27,355.73a11.42,11.42,0,1,1-22.84,0c0-6.31,6.16-13.76,10-13.76C740.77,342,748.27,349.43,748.27,355.73Z" transform="translate(-676.1 -111.56)"/><path class="cls-1" d="M745.31,355.79c0,3.85-3.77,7.46-7.62,7.46s-8.73-3.14-8.73-7,5.26-9.85,7.62-9.85C739.81,346.42,745.31,351.95,745.31,355.79Z" transform="translate(-676.1 -111.56)"/><path class="cls-4" d="M731.68,351.09a6.32,6.32,0,0,0-.76,4.51.64.64,0,0,0,.18.39.65.65,0,0,0,.59,0,16.77,16.77,0,0,0,3.42-1.53l2.14-1.16a3,3,0,0,0,1.32-1.09c.84-1.57-1.19-3.47-2.64-3.63S732.47,349.85,731.68,351.09Z" transform="translate(-676.1 -111.56)"/><path class="cls-2" d="M688,161.83a11.53,11.53,0,0,1-.67,3.87,11.1,11.1,0,0,1-.48,1.12,11.41,11.41,0,0,1-10.27,6.42h-.43V148.15c4.46.68,10,5.9,11.47,11.12a8.74,8.74,0,0,1,.32,1.65A7,7,0,0,1,688,161.83Z" transform="translate(-676.1 -111.56)"/><path class="cls-1" d="M685,161.89c0,3.85-3.77,7.46-7.62,7.46a7.86,7.86,0,0,1-1.26-.11V152.53h.15C679.49,152.52,685,158,685,161.89Z" transform="translate(-676.1 -111.56)"/><path class="cls-4" d="M678.25,158.34a3,3,0,0,1-1.32,1.09l-.83.45v-5.06C677.47,155.28,679,156.94,678.25,158.34Z" transform="translate(-676.1 -111.56)"/><path class="cls-2" d="M732.42,453.58a11.42,11.42,0,1,1-22.84,0c0-6.31,6.16-13.76,10-13.76C724.91,439.82,732.42,447.27,732.42,453.58Z" transform="translate(-676.1 -111.56)"/><path class="cls-1" d="M729.45,453.64c0,3.85-3.77,7.46-7.62,7.46s-8.73-3.14-8.73-7,5.26-9.85,7.62-9.85C724,444.27,729.45,449.79,729.45,453.64Z" transform="translate(-676.1 -111.56)"/><path class="cls-4" d="M715.83,448.93a6.32,6.32,0,0,0-.76,4.51.64.64,0,0,0,.18.39.65.65,0,0,0,.59,0,16.77,16.77,0,0,0,3.42-1.53l2.14-1.16a3,3,0,0,0,1.32-1.09c.84-1.57-1.19-3.47-2.64-3.63S716.61,447.7,715.83,448.93Z" transform="translate(-676.1 -111.56)"/><path class="cls-2" d="M1371,278.67a7.44,7.44,0,1,1-14.89,0c0-4.11,4-9,6.54-9C1366.15,269.7,1371,274.56,1371,278.67Z" transform="translate(-676.1 -111.56)"/><path class="cls-1" d="M1369.11,278.71a5.21,5.21,0,0,1-5,4.87c-2.51,0-5.69-2-5.69-4.56s3.43-6.42,5-6.42C1365.52,272.6,1369.11,276.2,1369.11,278.71Z" transform="translate(-676.1 -111.56)"/><path class="cls-4" d="M1360.22,275.64a4.12,4.12,0,0,0-.49,2.94.42.42,0,0,0,.11.25.42.42,0,0,0,.38,0,10.93,10.93,0,0,0,2.23-1l1.4-.75a2,2,0,0,0,.86-.71c.55-1-.78-2.26-1.72-2.37A3.46,3.46,0,0,0,1360.22,275.64Z" transform="translate(-676.1 -111.56)"/><path class="cls-2" d="M1410.24,279.15a7.44,7.44,0,1,1-14.89,0c0-4.11,4-9,6.54-9C1405.34,270.18,1410.24,275,1410.24,279.15Z" transform="translate(-676.1 -111.56)"/><path class="cls-1" d="M1408.31,279.18a5.21,5.21,0,0,1-5,4.87c-2.51,0-5.69-2-5.69-4.56s3.43-6.42,5-6.42C1404.72,273.08,1408.31,276.68,1408.31,279.18Z" transform="translate(-676.1 -111.56)"/><path class="cls-4" d="M1399.42,276.12a4.12,4.12,0,0,0-.49,2.94.42.42,0,0,0,.11.25.42.42,0,0,0,.38,0,10.93,10.93,0,0,0,2.23-1l1.4-.75a2,2,0,0,0,.86-.71c.55-1-.78-2.26-1.72-2.37A3.46,3.46,0,0,0,1399.42,276.12Z" transform="translate(-676.1 -111.56)"/><path class="cls-2" d="M1339.85,197.17a7.44,7.44,0,0,1-14.89,0c0-4.11,4-9,6.54-9C1335,188.2,1339.85,193.06,1339.85,197.17Z" transform="translate(-676.1 -111.56)"/><path class="cls-1" d="M1337.92,197.21a5.21,5.21,0,0,1-5,4.87c-2.51,0-5.69-2-5.69-4.56s3.43-6.42,5-6.42C1334.33,191.1,1337.92,194.7,1337.92,197.21Z" transform="translate(-676.1 -111.56)"/><path class="cls-4" d="M1329,194.15a4.12,4.12,0,0,0-.49,2.94.42.42,0,0,0,.11.25.42.42,0,0,0,.38,0,10.94,10.94,0,0,0,2.23-1l1.4-.75a2,2,0,0,0,.86-.71c.55-1-.78-2.26-1.72-2.37A3.46,3.46,0,0,0,1329,194.15Z" transform="translate(-676.1 -111.56)"/><path class="cls-2" d="M1412.66,420.74a5.23,5.23,0,0,1-9.16-5c1.39-2.53,5.51-4.16,7.06-3.31C1412.69,413.57,1414.06,418.21,1412.66,420.74Z" transform="translate(-676.1 -111.56)"/><path class="cls-1" d="M1411.75,420.32a4,4,0,0,1-5.16,1.44c-1.69-.93-3.08-3.49-2.15-5.18s4.7-3.05,5.73-2.48C1411.61,414.87,1412.69,418.63,1411.75,420.32Z" transform="translate(-676.1 -111.56)"/><path class="cls-3" d="M1407,415.22a2.9,2.9,0,0,0-1.3,1.64.29.29,0,0,0,0,.2.3.3,0,0,0,.23.14,7.68,7.68,0,0,0,1.71.14h1.12a1.38,1.38,0,0,0,.77-.14c.68-.44.29-1.65-.26-2A2.43,2.43,0,0,0,1407,415.22Z" transform="translate(-676.1 -111.56)"/><path class="cls-2" d="M1352.66,490.74a5.23,5.23,0,0,1-9.16-5c1.39-2.53,5.51-4.16,7.06-3.31C1352.69,483.57,1354.06,488.21,1352.66,490.74Z" transform="translate(-676.1 -111.56)"/><path class="cls-1" d="M1351.75,490.32a4,4,0,0,1-5.16,1.44c-1.69-.93-3.08-3.49-2.15-5.18s4.7-3.05,5.73-2.48C1351.61,484.87,1352.69,488.63,1351.75,490.32Z" transform="translate(-676.1 -111.56)"/><path class="cls-3" d="M1347,485.22a2.9,2.9,0,0,0-1.3,1.64.29.29,0,0,0,0,.2.3.3,0,0,0,.23.14,7.68,7.68,0,0,0,1.71.14h1.12a1.38,1.38,0,0,0,.77-.14c.68-.44.29-1.65-.26-2A2.43,2.43,0,0,0,1347,485.22Z" transform="translate(-676.1 -111.56)"/><path class="cls-2" d="M1397.55,485.73a5.23,5.23,0,1,1-9.16-5c1.39-2.53,5.51-4.16,7.06-3.31C1397.57,478.56,1398.94,483.2,1397.55,485.73Z" transform="translate(-676.1 -111.56)"/><path class="cls-1" d="M1396.64,485.31a4,4,0,0,1-5.16,1.44c-1.69-.93-3.08-3.49-2.15-5.18s4.7-3.05,5.73-2.48C1396.49,479.86,1397.57,483.62,1396.64,485.31Z" transform="translate(-676.1 -111.56)"/><path class="cls-3" d="M1391.92,480.21a2.89,2.89,0,0,0-1.3,1.64.29.29,0,0,0,0,.2.3.3,0,0,0,.23.14,7.68,7.68,0,0,0,1.71.14h1.12a1.38,1.38,0,0,0,.77-.14c.68-.44.29-1.65-.26-2A2.43,2.43,0,0,0,1391.92,480.21Z" transform="translate(-676.1 -111.56)"/><path class="cls-2" d="M1424.78,387.88a5.23,5.23,0,1,1-9.16-5c1.39-2.53,5.51-4.16,7.06-3.31C1424.8,380.7,1426.17,385.35,1424.78,387.88Z" transform="translate(-676.1 -111.56)"/><path class="cls-1" d="M1423.87,387.46a4,4,0,0,1-5.16,1.44c-1.69-.93-3.08-3.49-2.15-5.18s4.7-3.05,5.73-2.48C1423.72,382,1424.8,385.76,1423.87,387.46Z" transform="translate(-676.1 -111.56)"/><path class="cls-3" d="M1419.15,382.35a2.89,2.89,0,0,0-1.3,1.64.29.29,0,0,0,0,.2.3.3,0,0,0,.23.14,7.68,7.68,0,0,0,1.71.14h1.12a1.38,1.38,0,0,0,.77-.14c.68-.44.29-1.65-.26-2A2.43,2.43,0,0,0,1419.15,382.35Z" transform="translate(-676.1 -111.56)"/><path class="cls-2" d="M1367.29,476.86a5.23,5.23,0,1,1-9.16-5c1.39-2.53,5.51-4.16,7.06-3.31C1367.31,469.69,1368.68,474.33,1367.29,476.86Z" transform="translate(-676.1 -111.56)"/><path class="cls-1" d="M1366.38,476.44a4,4,0,0,1-5.16,1.44c-1.69-.93-3.08-3.49-2.15-5.18s4.7-3.05,5.73-2.48C1366.23,471,1367.31,474.75,1366.38,476.44Z" transform="translate(-676.1 -111.56)"/><path class="cls-3" d="M1361.66,471.34a2.89,2.89,0,0,0-1.3,1.64.29.29,0,0,0,0,.2.3.3,0,0,0,.23.14,7.68,7.68,0,0,0,1.71.14h1.12a1.38,1.38,0,0,0,.77-.14c.68-.44.29-1.65-.26-2A2.43,2.43,0,0,0,1361.66,471.34Z" transform="translate(-676.1 -111.56)"/><path class="cls-2" d="M1351.37,449.88a5.23,5.23,0,1,1-9.16-5c1.39-2.53,5.51-4.16,7.06-3.31C1351.4,442.71,1352.77,447.35,1351.37,449.88Z" transform="translate(-676.1 -111.56)"/><path class="cls-1" d="M1350.46,449.46a4,4,0,0,1-5.16,1.44c-1.69-.93-3.08-3.49-2.15-5.18s4.7-3.05,5.73-2.48C1350.31,444,1351.4,447.77,1350.46,449.46Z" transform="translate(-676.1 -111.56)"/><path class="cls-3" d="M1345.74,444.36a2.89,2.89,0,0,0-1.3,1.64.29.29,0,0,0,0,.2.3.3,0,0,0,.23.14,7.68,7.68,0,0,0,1.71.14h1.12a1.38,1.38,0,0,0,.77-.14c.68-.44.29-1.65-.26-2A2.43,2.43,0,0,0,1345.74,444.36Z" transform="translate(-676.1 -111.56)"/><path class="cls-2" d="M1370,338.27a7.28,7.28,0,1,1-12.75-7c1.95-3.54,7.69-5.83,9.85-4.64C1370.07,328.24,1372,334.73,1370,338.27Z" transform="translate(-676.1 -111.56)"/><path class="cls-1" d="M1368.33,337.39a5.11,5.11,0,0,1-6.56,1.85c-2.15-1.18-3.91-4.45-2.72-6.61s6-3.91,7.3-3.19C1368.16,330.44,1369.52,335.23,1368.33,337.39Z" transform="translate(-676.1 -111.56)"/><path class="cls-4" d="M1362.18,330.57a4.07,4.07,0,0,0-1.82,2.3.31.31,0,0,0,.29.47,10.65,10.65,0,0,0,2.38.19h1.55a1.92,1.92,0,0,0,1.08-.21c1-.62.41-2.31-.35-2.85A3.38,3.38,0,0,0,1362.18,330.57Z" transform="translate(-676.1 -111.56)"/><path class="cls-2" d="M1382.27,377.67a7.28,7.28,0,1,1-8.7,11.67c-3.24-2.42-4.72-8.42-3.25-10.39C1372.34,376.23,1379,375.25,1382.27,377.67Z" transform="translate(-676.1 -111.56)"/><path class="cls-1" d="M1381.17,379.2a5.11,5.11,0,0,1,.93,6.76c-1.47,2-4.94,3.26-6.92,1.78s-3.05-6.46-2.15-7.67C1374.26,378.42,1379.19,377.73,1381.17,379.2Z" transform="translate(-676.1 -111.56)"/><path class="cls-4" d="M1373.56,384.36a4.07,4.07,0,0,0,2,2.11.41.41,0,0,0,.27.06c.13,0,.2-.16.24-.29a10.65,10.65,0,0,0,.52-2.33l.22-1.54a1.92,1.92,0,0,0-.06-1.09c-.48-1-2.24-.72-2.87,0A3.38,3.38,0,0,0,1373.56,384.36Z" transform="translate(-676.1 -111.56)"/><path class="cls-2" d="M1379,424.15a7.28,7.28,0,1,1-12.65-7.2c2-3.51,7.77-5.72,9.91-4.51C1379.2,414.12,1381,420.63,1379,424.15Z" transform="translate(-676.1 -111.56)"/><path class="cls-1" d="M1377.34,423.25a5.11,5.11,0,0,1-6.59,1.76c-2.13-1.21-3.84-4.5-2.62-6.65s6-3.83,7.34-3.08C1377.26,416.29,1378.56,421.1,1377.34,423.25Z" transform="translate(-676.1 -111.56)"/><path class="cls-4" d="M1371.28,416.33a4.07,4.07,0,0,0-1.85,2.27.41.41,0,0,0,0,.27c0,.12.19.17.31.2a10.65,10.65,0,0,0,2.38.23l1.55,0a1.93,1.93,0,0,0,1.08-.19c1-.61.44-2.31-.31-2.86A3.38,3.38,0,0,0,1371.28,416.33Z" transform="translate(-676.1 -111.56)"/><path class="cls-2" d="M1350,226.65a7.28,7.28,0,1,1,14.23,3c-.84,4-5.68,7.8-8.09,7.29C1352.89,236.27,1349.21,230.6,1350,226.65Z" transform="translate(-676.1 -111.56)"/><path class="cls-1" d="M1351.91,227a5.11,5.11,0,0,1,5.75-3.66c2.4.51,5,3.13,4.51,5.54s-4.6,5.47-6.07,5.16C1354.08,233.61,1351.39,229.42,1351.91,227Z" transform="translate(-676.1 -111.56)"/><path class="cls-4" d="M1359.77,231.76a4.07,4.07,0,0,0,1.07-2.73.31.31,0,0,0-.42-.37,10.66,10.66,0,0,0-2.34.5l-1.49.44a1.93,1.93,0,0,0-1,.51c-.73.87.28,2.33,1.16,2.63A3.38,3.38,0,0,0,1359.77,231.76Z" transform="translate(-676.1 -111.56)"/><path class="cls-2" d="M1386.31,238.09a7.28,7.28,0,1,1-8.7,11.67c-3.24-2.42-4.72-8.42-3.25-10.39C1376.38,236.65,1383.07,235.67,1386.31,238.09Z" transform="translate(-676.1 -111.56)"/><path class="cls-1" d="M1385.21,239.63a5.11,5.11,0,0,1,.93,6.76c-1.47,2-4.94,3.26-6.92,1.78s-3.05-6.46-2.15-7.67C1378.3,238.84,1383.23,238.15,1385.21,239.63Z" transform="translate(-676.1 -111.56)"/><path class="cls-4" d="M1377.6,244.78a4.07,4.07,0,0,0,2,2.11.41.41,0,0,0,.27.06c.13,0,.2-.16.24-.29a10.65,10.65,0,0,0,.52-2.33l.22-1.54a1.92,1.92,0,0,0-.06-1.09c-.48-1-2.24-.72-2.87,0A3.38,3.38,0,0,0,1377.6,244.78Z" transform="translate(-676.1 -111.56)"/><path class="cls-2" d="M1394.36,188.64a7.28,7.28,0,1,1-8.7,11.67c-3.24-2.42-4.72-8.42-3.25-10.39C1384.44,187.2,1391.12,186.23,1394.36,188.64Z" transform="translate(-676.1 -111.56)"/><path class="cls-1" d="M1393.27,190.18a5.11,5.11,0,0,1,.93,6.76c-1.47,2-4.94,3.26-6.92,1.78s-3.05-6.46-2.15-7.67C1386.36,189.4,1391.29,188.71,1393.27,190.18Z" transform="translate(-676.1 -111.56)"/><path class="cls-4" d="M1385.66,195.34a4.07,4.07,0,0,0,2,2.11.41.41,0,0,0,.27.06c.13,0,.2-.16.24-.29a10.66,10.66,0,0,0,.52-2.33l.22-1.54a1.92,1.92,0,0,0-.06-1.09c-.48-1-2.24-.72-2.87,0A3.37,3.37,0,0,0,1385.66,195.34Z" transform="translate(-676.1 -111.56)"/><path class="cls-2" d="M1344.84,298.31a4.43,4.43,0,1,1-5.3,7.1c-2-1.47-2.87-5.12-2-6.32C1338.8,297.43,1342.87,296.84,1344.84,298.31Z" transform="translate(-676.1 -111.56)"/><path class="cls-1" d="M1344.17,299.24a3.11,3.11,0,0,1,.57,4.11c-.89,1.2-3,2-4.21,1.08s-1.86-3.93-1.31-4.67C1340,298.77,1343,298.35,1344.17,299.24Z" transform="translate(-676.1 -111.56)"/><path class="cls-4" d="M1339.54,302.38a2.48,2.48,0,0,0,1.23,1.29.25.25,0,0,0,.16,0c.08,0,.12-.1.15-.17a6.48,6.48,0,0,0,.31-1.42l.14-.94a1.17,1.17,0,0,0,0-.67c-.29-.63-1.36-.44-1.75,0A2.05,2.05,0,0,0,1339.54,302.38Z" transform="translate(-676.1 -111.56)"/><path class="cls-2" d="M1419.91,141.12a4.43,4.43,0,1,1-5.3,7.1c-2-1.47-2.87-5.12-2-6.32C1413.87,140.24,1417.94,139.65,1419.91,141.12Z" transform="translate(-676.1 -111.56)"/><path class="cls-1" d="M1419.24,142.05a3.11,3.11,0,0,1,.57,4.11c-.89,1.2-3,2-4.21,1.08s-1.86-3.93-1.31-4.67C1415,141.58,1418,141.15,1419.24,142.05Z" transform="translate(-676.1 -111.56)"/><path class="cls-4" d="M1414.61,145.19a2.48,2.48,0,0,0,1.23,1.29.25.25,0,0,0,.16,0c.08,0,.12-.1.15-.17a6.48,6.48,0,0,0,.31-1.42l.14-.94a1.17,1.17,0,0,0,0-.67c-.29-.63-1.36-.44-1.75,0A2.05,2.05,0,0,0,1414.61,145.19Z" transform="translate(-676.1 -111.56)"/><path class="cls-2" d="M1332,138.14a4.43,4.43,0,1,1-5.3,7.1c-2-1.47-2.87-5.12-2-6.32C1326,137.26,1330,136.67,1332,138.14Z" transform="translate(-676.1 -111.56)"/><path class="cls-1" d="M1331.33,139.07a3.11,3.11,0,0,1,.57,4.11c-.89,1.2-3,2-4.21,1.08s-1.86-3.93-1.31-4.67C1327.12,138.6,1330.12,138.18,1331.33,139.07Z" transform="translate(-676.1 -111.56)"/><path class="cls-4" d="M1326.7,142.21a2.48,2.48,0,0,0,1.23,1.29.25.25,0,0,0,.16,0c.08,0,.12-.1.15-.17a6.48,6.48,0,0,0,.31-1.42l.14-.94a1.17,1.17,0,0,0,0-.67c-.29-.63-1.36-.44-1.75,0A2.05,2.05,0,0,0,1326.7,142.21Z" transform="translate(-676.1 -111.56)"/><path class="cls-2" d="M1389,213.14a4.43,4.43,0,1,1-5.3,7.1c-2-1.47-2.87-5.12-2-6.32C1383,212.26,1387,211.67,1389,213.14Z" transform="translate(-676.1 -111.56)"/><path class="cls-1" d="M1388.33,214.07a3.11,3.11,0,0,1,.57,4.11c-.89,1.2-3,2-4.21,1.08s-1.86-3.93-1.31-4.67C1384.12,213.6,1387.12,213.18,1388.33,214.07Z" transform="translate(-676.1 -111.56)"/><path class="cls-4" d="M1383.7,217.21a2.48,2.48,0,0,0,1.23,1.29.25.25,0,0,0,.16,0c.08,0,.12-.1.15-.17a6.48,6.48,0,0,0,.31-1.42l.14-.94a1.17,1.17,0,0,0,0-.67c-.29-.63-1.36-.44-1.75,0A2.05,2.05,0,0,0,1383.7,217.21Z" transform="translate(-676.1 -111.56)"/><path class="cls-2" d="M1417.41,463.12a4.43,4.43,0,1,1-5.3,7.1c-2-1.47-2.87-5.12-2-6.32C1411.37,462.24,1415.44,461.65,1417.41,463.12Z" transform="translate(-676.1 -111.56)"/><path class="cls-1" d="M1416.74,464.05a3.11,3.11,0,0,1,.57,4.11c-.89,1.2-3,2-4.21,1.08s-1.86-3.93-1.31-4.67C1412.54,463.58,1415.54,463.15,1416.74,464.05Z" transform="translate(-676.1 -111.56)"/><path class="cls-4" d="M1412.11,467.19a2.48,2.48,0,0,0,1.23,1.29.25.25,0,0,0,.16,0c.08,0,.12-.1.15-.17a6.48,6.48,0,0,0,.31-1.42l.14-.94a1.17,1.17,0,0,0,0-.67c-.29-.63-1.36-.44-1.75,0A2.05,2.05,0,0,0,1412.11,467.19Z" transform="translate(-676.1 -111.56)"/><path class="cls-2" d="M1385.56,290.94a4.43,4.43,0,1,1-5.3,7.1c-2-1.47-2.87-5.12-2-6.32C1379.52,290.07,1383.59,289.47,1385.56,290.94Z" transform="translate(-676.1 -111.56)"/><path class="cls-1" d="M1384.89,291.88a3.11,3.11,0,0,1,.57,4.11c-.89,1.2-3,2-4.21,1.08s-1.86-3.93-1.31-4.67C1380.69,291.4,1383.69,291,1384.89,291.88Z" transform="translate(-676.1 -111.56)"/><path class="cls-4" d="M1380.26,295a2.48,2.48,0,0,0,1.23,1.29.25.25,0,0,0,.16,0c.08,0,.12-.1.15-.17a6.48,6.48,0,0,0,.31-1.42l.14-.94a1.17,1.17,0,0,0,0-.67c-.29-.63-1.36-.44-1.75,0A2.05,2.05,0,0,0,1380.26,295Z" transform="translate(-676.1 -111.56)"/><path class="cls-2" d="M1364.56,192.94a4.43,4.43,0,1,1-5.3,7.1c-2-1.47-2.87-5.12-2-6.32C1358.52,192.07,1362.59,191.47,1364.56,192.94Z" transform="translate(-676.1 -111.56)"/><path class="cls-1" d="M1363.89,193.88a3.11,3.11,0,0,1,.57,4.11c-.89,1.2-3,2-4.21,1.08s-1.86-3.93-1.31-4.67C1359.69,193.4,1362.69,193,1363.89,193.88Z" transform="translate(-676.1 -111.56)"/><path class="cls-4" d="M1359.26,197a2.48,2.48,0,0,0,1.23,1.29.25.25,0,0,0,.16,0c.08,0,.12-.1.15-.17a6.48,6.48,0,0,0,.31-1.42l.14-.94a1.17,1.17,0,0,0,0-.67c-.29-.63-1.36-.44-1.75,0A2.05,2.05,0,0,0,1359.26,197Z" transform="translate(-676.1 -111.56)"/><path class="cls-2" d="M1415.59,171.54a4.43,4.43,0,1,1-5.3,7.1c-2-1.47-2.87-5.12-2-6.32C1409.55,170.66,1413.62,170.07,1415.59,171.54Z" transform="translate(-676.1 -111.56)"/><path class="cls-1" d="M1414.92,172.47a3.11,3.11,0,0,1,.57,4.11c-.89,1.2-3,2-4.21,1.08s-1.86-3.93-1.31-4.67C1410.72,172,1413.72,171.57,1414.92,172.47Z" transform="translate(-676.1 -111.56)"/><path class="cls-4" d="M1410.29,175.61a2.48,2.48,0,0,0,1.23,1.29.25.25,0,0,0,.16,0c.08,0,.12-.1.15-.17a6.48,6.48,0,0,0,.31-1.42l.14-.94a1.17,1.17,0,0,0,0-.67c-.29-.63-1.36-.44-1.75,0A2.05,2.05,0,0,0,1410.29,175.61Z" transform="translate(-676.1 -111.56)"/><path class="cls-2" d="M1343,321.26a4.43,4.43,0,1,1-5.3,7.1c-2-1.47-2.87-5.12-2-6.32C1336.91,320.39,1341,319.79,1343,321.26Z" transform="translate(-676.1 -111.56)"/><path class="cls-1" d="M1342.29,322.2a3.11,3.11,0,0,1,.57,4.11c-.89,1.2-3,2-4.21,1.08s-1.86-3.93-1.31-4.67C1338.08,321.72,1341.08,321.3,1342.29,322.2Z" transform="translate(-676.1 -111.56)"/><path class="cls-4" d="M1337.66,325.34a2.48,2.48,0,0,0,1.23,1.29.25.25,0,0,0,.16,0c.08,0,.12-.1.15-.17a6.48,6.48,0,0,0,.31-1.42l.14-.94a1.17,1.17,0,0,0,0-.67c-.29-.63-1.36-.44-1.75,0A2.05,2.05,0,0,0,1337.66,325.34Z" transform="translate(-676.1 -111.56)"/><path class="cls-2" d="M1337.24,369.45a4.43,4.43,0,1,1-7.06-5.34c1.48-2,5.14-2.84,6.34-1.93C1338.15,363.41,1338.72,367.49,1337.24,369.45Z" transform="translate(-676.1 -111.56)"/><path class="cls-1" d="M1336.31,368.77a3.11,3.11,0,0,1-4.11.54c-1.19-.9-2-3-1.06-4.22s3.94-1.83,4.67-1.28C1336.81,364.57,1337.21,367.58,1336.31,368.77Z" transform="translate(-676.1 -111.56)"/><path class="cls-4" d="M1333.2,364.12a2.48,2.48,0,0,0-1.29,1.23.25.25,0,0,0,0,.16c0,.08.1.12.17.15a6.48,6.48,0,0,0,1.42.32l.94.14a1.17,1.17,0,0,0,.67,0c.63-.29.45-1.36,0-1.75A2.05,2.05,0,0,0,1333.2,364.12Z" transform="translate(-676.1 -111.56)"/><path class="cls-2" d="M1336.44,253.8a4.43,4.43,0,1,1-7.06-5.34c1.48-2,5.14-2.84,6.34-1.93C1337.35,247.77,1337.92,251.84,1336.44,253.8Z" transform="translate(-676.1 -111.56)"/><path class="cls-1" d="M1335.5,253.13a3.11,3.11,0,0,1-4.11.54c-1.19-.9-2-3-1.06-4.22s3.94-1.83,4.67-1.28C1336,248.93,1336.41,251.93,1335.5,253.13Z" transform="translate(-676.1 -111.56)"/><path class="cls-4" d="M1332.4,248.48a2.48,2.48,0,0,0-1.29,1.23.25.25,0,0,0,0,.16c0,.08.1.12.17.15a6.48,6.48,0,0,0,1.42.32l.94.14a1.17,1.17,0,0,0,.67,0c.63-.29.45-1.36,0-1.75A2.05,2.05,0,0,0,1332.4,248.48Z" transform="translate(-676.1 -111.56)"/><path class="cls-2" d="M1417.19,225.66a4.43,4.43,0,1,1-7.06-5.34c1.48-2,5.14-2.84,6.34-1.93C1418.11,219.63,1418.67,223.7,1417.19,225.66Z" transform="translate(-676.1 -111.56)"/><path class="cls-1" d="M1416.26,225a3.11,3.11,0,0,1-4.11.54c-1.19-.9-2-3-1.06-4.22s3.94-1.83,4.67-1.28C1416.76,220.79,1417.17,223.79,1416.26,225Z" transform="translate(-676.1 -111.56)"/><path class="cls-4" d="M1413.15,220.34a2.48,2.48,0,0,0-1.29,1.23.25.25,0,0,0,0,.16c0,.08.1.12.17.15a6.48,6.48,0,0,0,1.42.32l.94.14a1.17,1.17,0,0,0,.67,0c.63-.29.45-1.36,0-1.75A2.05,2.05,0,0,0,1413.15,220.34Z" transform="translate(-676.1 -111.56)"/><path class="cls-2" d="M1384.7,168.66a4.43,4.43,0,1,1-7.06-5.34c1.48-2,5.14-2.84,6.34-1.93C1385.61,162.63,1386.18,166.7,1384.7,168.66Z" transform="translate(-676.1 -111.56)"/><path class="cls-1" d="M1383.76,168a3.11,3.11,0,0,1-4.11.54c-1.19-.9-2-3-1.06-4.22s3.94-1.83,4.67-1.28C1384.27,163.79,1384.67,166.79,1383.76,168Z" transform="translate(-676.1 -111.56)"/><path class="cls-4" d="M1380.66,163.34a2.48,2.48,0,0,0-1.29,1.23.25.25,0,0,0,0,.16c0,.08.1.12.17.15a6.48,6.48,0,0,0,1.42.32l.94.14a1.17,1.17,0,0,0,.67,0c.63-.29.45-1.36,0-1.75A2.05,2.05,0,0,0,1380.66,163.34Z" transform="translate(-676.1 -111.56)"/><path class="cls-2" d="M1397.93,140.8a4.43,4.43,0,1,1-7.06-5.34c1.48-2,5.14-2.84,6.34-1.93C1398.85,134.77,1399.42,138.84,1397.93,140.8Z" transform="translate(-676.1 -111.56)"/><path class="cls-1" d="M1397,140.13a3.11,3.11,0,0,1-4.11.54c-1.19-.9-2-3-1.06-4.22s3.94-1.83,4.67-1.28C1397.5,135.93,1397.91,138.93,1397,140.13Z" transform="translate(-676.1 -111.56)"/><path class="cls-4" d="M1393.89,135.48a2.48,2.48,0,0,0-1.29,1.23.25.25,0,0,0,0,.16c0,.08.1.12.17.15a6.48,6.48,0,0,0,1.42.32l.94.14a1.17,1.17,0,0,0,.67,0c.63-.29.45-1.36,0-1.75A2.05,2.05,0,0,0,1393.89,135.48Z" transform="translate(-676.1 -111.56)"/><path class="cls-2" d="M1412,253.66a4.43,4.43,0,1,1-7.06-5.34c1.48-2,5.14-2.84,6.34-1.93C1412.91,247.63,1413.48,251.7,1412,253.66Z" transform="translate(-676.1 -111.56)"/><path class="cls-1" d="M1411.07,253a3.11,3.11,0,0,1-4.11.54c-1.19-.9-2-3-1.06-4.22s3.94-1.83,4.67-1.28C1411.57,248.79,1412,251.79,1411.07,253Z" transform="translate(-676.1 -111.56)"/><path class="cls-4" d="M1408,248.34a2.48,2.48,0,0,0-1.29,1.23.25.25,0,0,0,0,.16c0,.08.1.12.17.15a6.48,6.48,0,0,0,1.42.32l.94.14a1.17,1.17,0,0,0,.67,0c.63-.29.45-1.36,0-1.75A2.05,2.05,0,0,0,1408,248.34Z" transform="translate(-676.1 -111.56)"/><path class="cls-2" d="M1380.85,144.13a4.43,4.43,0,1,1-7.06-5.34c1.48-2,5.14-2.84,6.34-1.94C1381.77,138.09,1382.34,142.16,1380.85,144.13Z" transform="translate(-676.1 -111.56)"/><path class="cls-1" d="M1379.92,143.45a3.11,3.11,0,0,1-4.11.54c-1.19-.9-2-3-1.06-4.22s3.94-1.83,4.67-1.28C1380.43,139.25,1380.83,142.25,1379.92,143.45Z" transform="translate(-676.1 -111.56)"/><path class="cls-4" d="M1376.81,138.8a2.48,2.48,0,0,0-1.29,1.23.25.25,0,0,0,0,.16c0,.08.1.12.17.15a6.48,6.48,0,0,0,1.42.32l.94.14a1.17,1.17,0,0,0,.67,0c.63-.29.45-1.36,0-1.75A2.05,2.05,0,0,0,1376.81,138.8Z" transform="translate(-676.1 -111.56)"/><path class="cls-2" d="M1387.41,339.12a4.43,4.43,0,1,1-5.3,7.1c-2-1.47-2.87-5.12-2-6.32C1381.37,338.24,1385.44,337.65,1387.41,339.12Z" transform="translate(-676.1 -111.56)"/><path class="cls-1" d="M1386.74,340.05a3.11,3.11,0,0,1,.57,4.11c-.89,1.2-3,2-4.21,1.08s-1.86-3.93-1.31-4.67C1382.54,339.58,1385.54,339.15,1386.74,340.05Z" transform="translate(-676.1 -111.56)"/><path class="cls-4" d="M1382.11,343.19a2.48,2.48,0,0,0,1.23,1.29.25.25,0,0,0,.16,0c.08,0,.12-.1.15-.17a6.48,6.48,0,0,0,.31-1.42l.14-.94a1.17,1.17,0,0,0,0-.67c-.29-.63-1.36-.44-1.75,0A2.05,2.05,0,0,0,1382.11,343.19Z" transform="translate(-676.1 -111.56)"/><path class="cls-2" d="M1354.1,374.54a4.43,4.43,0,1,1-5.3,7.1c-2-1.47-2.87-5.12-2-6.32C1348.05,373.66,1352.12,373.07,1354.1,374.54Z" transform="translate(-676.1 -111.56)"/><path class="cls-1" d="M1353.43,375.47a3.11,3.11,0,0,1,.57,4.11c-.89,1.2-3,2-4.21,1.08s-1.86-3.93-1.31-4.67C1349.22,375,1352.22,374.57,1353.43,375.47Z" transform="translate(-676.1 -111.56)"/><path class="cls-4" d="M1348.8,378.61a2.48,2.48,0,0,0,1.23,1.29.25.25,0,0,0,.16,0c.08,0,.12-.1.15-.17a6.48,6.48,0,0,0,.31-1.42l.14-.94a1.17,1.17,0,0,0,0-.67c-.29-.63-1.36-.44-1.75,0A2.05,2.05,0,0,0,1348.8,378.61Z" transform="translate(-676.1 -111.56)"/><path class="cls-2" d="M1334.56,422.94a4.43,4.43,0,1,1-5.3,7.1c-2-1.47-2.87-5.12-2-6.32C1328.52,422.07,1332.59,421.47,1334.56,422.94Z" transform="translate(-676.1 -111.56)"/><path class="cls-1" d="M1333.89,423.88a3.11,3.11,0,0,1,.57,4.11c-.89,1.2-3,2-4.21,1.08s-1.86-3.93-1.31-4.67C1329.69,423.4,1332.69,423,1333.89,423.88Z" transform="translate(-676.1 -111.56)"/><path class="cls-4" d="M1329.26,427a2.48,2.48,0,0,0,1.23,1.29.25.25,0,0,0,.16,0c.08,0,.12-.1.15-.17a6.48,6.48,0,0,0,.31-1.42l.14-.94a1.17,1.17,0,0,0,0-.67c-.29-.63-1.36-.44-1.75,0A2.05,2.05,0,0,0,1329.26,427Z" transform="translate(-676.1 -111.56)"/><path class="cls-2" d="M1335,472.47a4.43,4.43,0,1,1-5.3,7.1c-2-1.47-2.87-5.12-2-6.32C1328.92,471.6,1333,471,1335,472.47Z" transform="translate(-676.1 -111.56)"/><path class="cls-1" d="M1334.29,473.41a3.11,3.11,0,0,1,.57,4.11c-.89,1.2-3,2-4.21,1.08s-1.86-3.93-1.31-4.67C1330.09,472.93,1333.09,472.51,1334.29,473.41Z" transform="translate(-676.1 -111.56)"/><path class="cls-4" d="M1329.66,476.55a2.48,2.48,0,0,0,1.23,1.29.25.25,0,0,0,.16,0c.08,0,.12-.1.15-.17a6.48,6.48,0,0,0,.31-1.42l.14-.94a1.17,1.17,0,0,0,0-.67c-.29-.63-1.36-.44-1.75,0A2.05,2.05,0,0,0,1329.66,476.55Z" transform="translate(-676.1 -111.56)"/><path class="cls-2" d="M1403.3,319.75a7.28,7.28,0,1,1-12.75-7c1.95-3.54,7.69-5.83,9.85-4.64C1403.36,309.71,1405.25,316.2,1403.3,319.75Z" transform="translate(-676.1 -111.56)"/><path class="cls-1" d="M1401.62,318.87a5.11,5.11,0,0,1-6.56,1.85c-2.15-1.18-3.91-4.45-2.72-6.61s6-3.91,7.3-3.19C1401.45,311.92,1402.81,316.71,1401.62,318.87Z" transform="translate(-676.1 -111.56)"/><path class="cls-4" d="M1395.47,312a4.07,4.07,0,0,0-1.82,2.3.31.31,0,0,0,.29.47,10.65,10.65,0,0,0,2.38.19h1.55a1.93,1.93,0,0,0,1.08-.21c1-.62.41-2.31-.35-2.85A3.37,3.37,0,0,0,1395.47,312Z" transform="translate(-676.1 -111.56)"/><path class="cls-2" d="M1331.3,269a7.28,7.28,0,1,1,11,9.53c-2.65,3.06-8.74,4.09-10.6,2.48C1329.14,278.77,1328.65,272,1331.3,269Z" transform="translate(-676.1 -111.56)"/><path class="cls-1" d="M1332.75,270.18a5.11,5.11,0,0,1,6.81-.43c1.85,1.61,2.89,5.17,1.27,7s-6.67,2.57-7.81,1.59C1331.47,277,1331.14,272,1332.75,270.18Z" transform="translate(-676.1 -111.56)"/><path class="cls-4" d="M1337.34,278.15a4.07,4.07,0,0,0,2.26-1.87.41.41,0,0,0,.08-.26c0-.13-.15-.21-.27-.26a10.66,10.66,0,0,0-2.29-.69l-1.52-.33a1.92,1.92,0,0,0-1.09,0c-1.06.41-.88,2.18-.25,2.86A3.38,3.38,0,0,0,1337.34,278.15Z" transform="translate(-676.1 -111.56)"/><path class="cls-2" d="M1350.21,411.58a6.33,6.33,0,1,1-11.09-6.1c1.69-3.08,6.69-5.07,8.56-4C1350.26,402.85,1351.9,408.5,1350.21,411.58Z" transform="translate(-676.1 -111.56)"/><path class="cls-1" d="M1348.75,410.81a4.44,4.44,0,0,1-5.71,1.61c-1.87-1-3.4-3.87-2.36-5.75s5.2-3.4,6.35-2.77C1348.6,404.77,1349.79,408.94,1348.75,410.81Z" transform="translate(-676.1 -111.56)"/><path class="cls-4" d="M1343.4,404.88a3.54,3.54,0,0,0-1.58,2,.36.36,0,0,0,0,.24c0,.11.17.15.28.17a9.27,9.27,0,0,0,2.07.17h1.35a1.67,1.67,0,0,0,.94-.18c.83-.54.35-2-.31-2.48A2.94,2.94,0,0,0,1343.4,404.88Z" transform="translate(-676.1 -111.56)"/><path class="cls-2" d="M1415.68,355.73a11.42,11.42,0,0,1-22.84,0c0-6.31,6.16-13.76,10-13.76C1408.17,342,1415.68,349.43,1415.68,355.73Z" transform="translate(-676.1 -111.56)"/><path class="cls-1" d="M1412.71,355.79c0,3.85-3.77,7.46-7.62,7.46s-8.73-3.14-8.73-7,5.26-9.85,7.62-9.85C1407.21,346.42,1412.71,351.95,1412.71,355.79Z" transform="translate(-676.1 -111.56)"/><path class="cls-4" d="M1399.09,351.09a6.32,6.32,0,0,0-.76,4.51.64.64,0,0,0,.18.39.65.65,0,0,0,.59,0,16.77,16.77,0,0,0,3.42-1.53l2.14-1.16a3,3,0,0,0,1.32-1.09c.84-1.57-1.19-3.47-2.64-3.63S1399.87,349.85,1399.09,351.09Z" transform="translate(-676.1 -111.56)"/><path class="cls-2" d="M1355.35,161.82a11.42,11.42,0,0,1-22.84,0c0-6.31,6.16-13.76,10-13.76C1347.85,148.07,1355.35,155.52,1355.35,161.82Z" transform="translate(-676.1 -111.56)"/><path class="cls-1" d="M1352.39,161.88c0,3.85-3.77,7.46-7.62,7.46s-8.73-3.14-8.73-7,5.26-9.85,7.62-9.85C1346.89,152.51,1352.39,158,1352.39,161.88Z" transform="translate(-676.1 -111.56)"/><path class="cls-4" d="M1338.76,157.18a6.32,6.32,0,0,0-.76,4.51.64.64,0,0,0,.18.39.65.65,0,0,0,.59,0,16.76,16.76,0,0,0,3.42-1.53l2.14-1.16a3,3,0,0,0,1.32-1.09c.84-1.57-1.19-3.47-2.64-3.63S1339.55,155.94,1338.76,157.18Z" transform="translate(-676.1 -111.56)"/><path class="cls-2" d="M1399.82,453.58a11.42,11.42,0,1,1-22.84,0c0-6.31,6.16-13.76,10-13.76C1392.31,439.82,1399.82,447.27,1399.82,453.58Z" transform="translate(-676.1 -111.56)"/><path class="cls-1" d="M1396.85,453.64c0,3.85-3.77,7.46-7.62,7.46s-8.73-3.14-8.73-7,5.26-9.85,7.62-9.85C1391.36,444.27,1396.85,449.79,1396.85,453.64Z" transform="translate(-676.1 -111.56)"/><path class="cls-4" d="M1383.23,448.93a6.32,6.32,0,0,0-.76,4.51.64.64,0,0,0,.18.39.65.65,0,0,0,.59,0,16.77,16.77,0,0,0,3.42-1.53l2.14-1.16a3,3,0,0,0,1.32-1.09c.84-1.57-1.19-3.47-2.64-3.63S1384,447.7,1383.23,448.93Z" transform="translate(-676.1 -111.56)"/><path class="cls-2" d="M1273.59,351.27a7.44,7.44,0,1,1,14.89,0c0,4.11-4,9-6.54,9C1278.49,360.24,1273.59,355.38,1273.59,351.27Z" transform="translate(-676.1 -111.56)"/><path class="cls-1" d="M1275.53,351.23a5.21,5.21,0,0,1,5-4.87c2.51,0,5.69,2,5.69,4.56s-3.43,6.42-5,6.42C1279.11,357.34,1275.53,353.74,1275.53,351.23Z" transform="translate(-676.1 -111.56)"/><path class="cls-4" d="M1284.41,354.3a4.12,4.12,0,0,0,.49-2.94.42.42,0,0,0-.11-.25.42.42,0,0,0-.38,0,10.93,10.93,0,0,0-2.23,1l-1.4.75a2,2,0,0,0-.86.71c-.55,1,.78,2.26,1.72,2.37A3.46,3.46,0,0,0,1284.41,354.3Z" transform="translate(-676.1 -111.56)"/><path class="cls-2" d="M1234.39,350.8a7.44,7.44,0,1,1,14.89,0c0,4.11-4,9-6.54,9C1239.29,359.77,1234.39,354.91,1234.39,350.8Z" transform="translate(-676.1 -111.56)"/><path class="cls-1" d="M1236.33,350.76a5.21,5.21,0,0,1,5-4.87c2.51,0,5.69,2,5.69,4.56s-3.43,6.42-5,6.42C1239.91,356.87,1236.33,353.27,1236.33,350.76Z" transform="translate(-676.1 -111.56)"/><path class="cls-4" d="M1245.21,353.83a4.12,4.12,0,0,0,.49-2.94.42.42,0,0,0-.11-.25.42.42,0,0,0-.38,0,10.93,10.93,0,0,0-2.23,1l-1.4.75a2,2,0,0,0-.86.71c-.55,1,.78,2.26,1.72,2.37A3.46,3.46,0,0,0,1245.21,353.83Z" transform="translate(-676.1 -111.56)"/><path class="cls-2" d="M1304.78,432.77a7.44,7.44,0,0,1,14.89,0c0,4.11-4,9-6.54,9C1309.68,441.74,1304.78,436.88,1304.78,432.77Z" transform="translate(-676.1 -111.56)"/><path class="cls-1" d="M1306.72,432.73a5.21,5.21,0,0,1,5-4.87c2.51,0,5.69,2,5.69,4.56s-3.43,6.42-5,6.42C1310.3,438.84,1306.72,435.24,1306.72,432.73Z" transform="translate(-676.1 -111.56)"/><path class="cls-4" d="M1315.6,435.8a4.12,4.12,0,0,0,.49-2.94.42.42,0,0,0-.11-.25.42.42,0,0,0-.38,0,10.93,10.93,0,0,0-2.23,1l-1.4.75a2,2,0,0,0-.86.71c-.55,1,.78,2.26,1.72,2.37A3.46,3.46,0,0,0,1315.6,435.8Z" transform="translate(-676.1 -111.56)"/><path class="cls-2" d="M1232,209.2a5.23,5.23,0,1,1,9.16,5c-1.39,2.53-5.51,4.16-7.06,3.31C1231.94,216.38,1230.58,211.73,1232,209.2Z" transform="translate(-676.1 -111.56)"/><path class="cls-1" d="M1232.88,209.62a4,4,0,0,1,5.16-1.44c1.69.93,3.08,3.49,2.15,5.18s-4.7,3.05-5.73,2.48C1233,215.07,1231.95,211.32,1232.88,209.62Z" transform="translate(-676.1 -111.56)"/><path class="cls-3" d="M1237.6,214.73a2.89,2.89,0,0,0,1.3-1.64.29.29,0,0,0,0-.2.3.3,0,0,0-.23-.14,7.67,7.67,0,0,0-1.71-.14h-1.12a1.38,1.38,0,0,0-.77.14c-.68.44-.29,1.65.26,2A2.43,2.43,0,0,0,1237.6,214.73Z" transform="translate(-676.1 -111.56)"/><path class="cls-2" d="M1292,139.2a5.23,5.23,0,1,1,9.16,5c-1.39,2.53-5.51,4.16-7.06,3.31C1291.94,146.38,1290.58,141.73,1292,139.2Z" transform="translate(-676.1 -111.56)"/><path class="cls-1" d="M1292.88,139.62a4,4,0,0,1,5.16-1.44c1.69.93,3.08,3.49,2.15,5.18s-4.7,3.05-5.73,2.48C1293,145.07,1291.95,141.32,1292.88,139.62Z" transform="translate(-676.1 -111.56)"/><path class="cls-3" d="M1297.6,144.73a2.89,2.89,0,0,0,1.3-1.64.29.29,0,0,0,0-.2.3.3,0,0,0-.23-.14,7.67,7.67,0,0,0-1.71-.14h-1.12a1.38,1.38,0,0,0-.77.14c-.68.44-.29,1.65.26,2A2.43,2.43,0,0,0,1297.6,144.73Z" transform="translate(-676.1 -111.56)"/><path class="cls-2" d="M1247.09,144.21a5.23,5.23,0,1,1,9.16,5c-1.39,2.53-5.51,4.16-7.06,3.31C1247.06,151.39,1245.69,146.74,1247.09,144.21Z" transform="translate(-676.1 -111.56)"/><path class="cls-1" d="M1248,144.63a4,4,0,0,1,5.16-1.44c1.69.93,3.08,3.49,2.15,5.18s-4.7,3.05-5.73,2.48C1248.14,150.08,1247.06,146.32,1248,144.63Z" transform="translate(-676.1 -111.56)"/><path class="cls-3" d="M1252.72,149.74a2.9,2.9,0,0,0,1.3-1.64.29.29,0,0,0,0-.2.3.3,0,0,0-.23-.14,7.67,7.67,0,0,0-1.71-.14H1251a1.38,1.38,0,0,0-.77.14c-.68.44-.29,1.65.26,2A2.43,2.43,0,0,0,1252.72,149.74Z" transform="translate(-676.1 -111.56)"/><path class="cls-2" d="M1219.86,242.07a5.23,5.23,0,0,1,9.16,5c-1.39,2.53-5.51,4.16-7.06,3.31C1219.83,249.24,1218.46,244.6,1219.86,242.07Z" transform="translate(-676.1 -111.56)"/><path class="cls-1" d="M1220.77,242.49a4,4,0,0,1,5.16-1.44c1.69.93,3.08,3.49,2.15,5.18s-4.7,3.05-5.73,2.48C1220.91,247.94,1219.83,244.18,1220.77,242.49Z" transform="translate(-676.1 -111.56)"/><path class="cls-3" d="M1225.49,247.59a2.9,2.9,0,0,0,1.3-1.64.29.29,0,0,0,0-.2.3.3,0,0,0-.23-.14,7.67,7.67,0,0,0-1.71-.14h-1.12a1.38,1.38,0,0,0-.77.14c-.68.44-.29,1.65.26,2A2.43,2.43,0,0,0,1225.49,247.59Z" transform="translate(-676.1 -111.56)"/><path class="cls-2" d="M1277.35,153.08a5.23,5.23,0,0,1,9.16,5c-1.39,2.53-5.51,4.16-7.06,3.31C1277.32,160.26,1276,155.61,1277.35,153.08Z" transform="translate(-676.1 -111.56)"/><path class="cls-1" d="M1278.26,153.5a4,4,0,0,1,5.16-1.44c1.69.93,3.08,3.49,2.15,5.18s-4.7,3.05-5.73,2.48C1278.4,159,1277.32,155.19,1278.26,153.5Z" transform="translate(-676.1 -111.56)"/><path class="cls-3" d="M1283,158.61a2.9,2.9,0,0,0,1.3-1.64.29.29,0,0,0,0-.2.3.3,0,0,0-.23-.14,7.68,7.68,0,0,0-1.71-.14h-1.12a1.38,1.38,0,0,0-.77.14c-.68.44-.29,1.65.26,2A2.43,2.43,0,0,0,1283,158.61Z" transform="translate(-676.1 -111.56)"/><path class="cls-2" d="M1293.26,180.06a5.23,5.23,0,0,1,9.16,5c-1.39,2.53-5.51,4.16-7.06,3.31C1293.23,187.24,1291.87,182.59,1293.26,180.06Z" transform="translate(-676.1 -111.56)"/><path class="cls-1" d="M1294.17,180.48a4,4,0,0,1,5.16-1.44c1.69.93,3.08,3.49,2.15,5.18s-4.7,3.05-5.73,2.48C1294.32,185.93,1293.24,182.17,1294.17,180.48Z" transform="translate(-676.1 -111.56)"/><path class="cls-3" d="M1298.89,185.59a2.9,2.9,0,0,0,1.3-1.64.29.29,0,0,0,0-.2.3.3,0,0,0-.23-.14,7.67,7.67,0,0,0-1.71-.14h-1.12a1.38,1.38,0,0,0-.77.14c-.68.44-.29,1.65.26,2A2.43,2.43,0,0,0,1298.89,185.59Z" transform="translate(-676.1 -111.56)"/><path class="cls-2" d="M1274.63,291.67a7.28,7.28,0,1,1,12.75,7c-1.95,3.54-7.69,5.83-9.85,4.64C1274.57,301.71,1272.68,295.21,1274.63,291.67Z" transform="translate(-676.1 -111.56)"/><path class="cls-1" d="M1276.3,292.55a5.11,5.11,0,0,1,6.56-1.85c2.15,1.18,3.91,4.45,2.72,6.61s-6,3.91-7.3,3.19C1276.48,299.5,1275.11,294.71,1276.3,292.55Z" transform="translate(-676.1 -111.56)"/><path class="cls-4" d="M1282.46,299.38a4.07,4.07,0,0,0,1.81-2.3.31.31,0,0,0-.29-.47,10.66,10.66,0,0,0-2.38-.19H1280a1.93,1.93,0,0,0-1.08.21c-1,.62-.41,2.31.35,2.85A3.38,3.38,0,0,0,1282.46,299.38Z" transform="translate(-676.1 -111.56)"/><path class="cls-2" d="M1220.32,327.31a7.28,7.28,0,1,1,12.75,7c-1.95,3.54-7.69,5.83-9.85,4.64C1220.26,337.34,1218.37,330.85,1220.32,327.31Z" transform="translate(-676.1 -111.56)"/><path class="cls-1" d="M1222,328.19a5.11,5.11,0,0,1,6.56-1.85c2.15,1.18,3.91,4.45,2.72,6.61s-6,3.91-7.3,3.19C1222.16,335.14,1220.8,330.35,1222,328.19Z" transform="translate(-676.1 -111.56)"/><path class="cls-4" d="M1228.15,335a4.07,4.07,0,0,0,1.81-2.3.31.31,0,0,0-.29-.47,10.66,10.66,0,0,0-2.38-.19h-1.55a1.92,1.92,0,0,0-1.08.21c-1,.62-.41,2.31.35,2.85A3.38,3.38,0,0,0,1228.15,335Z" transform="translate(-676.1 -111.56)"/><path class="cls-2" d="M1262.36,252.28a7.28,7.28,0,1,1,8.7-11.67c3.24,2.42,4.72,8.42,3.25,10.39C1272.29,253.72,1265.6,254.7,1262.36,252.28Z" transform="translate(-676.1 -111.56)"/><path class="cls-1" d="M1263.46,250.74a5.11,5.11,0,0,1-.93-6.76c1.47-2,4.94-3.26,6.92-1.78s3.05,6.46,2.15,7.67C1270.37,251.53,1265.44,252.22,1263.46,250.74Z" transform="translate(-676.1 -111.56)"/><path class="cls-4" d="M1271.07,245.58a4.07,4.07,0,0,0-2-2.11.41.41,0,0,0-.27-.06c-.13,0-.2.16-.24.29A10.65,10.65,0,0,0,1268,246l-.22,1.54a1.93,1.93,0,0,0,.06,1.09c.48,1,2.24.72,2.87,0A3.38,3.38,0,0,0,1271.07,245.58Z" transform="translate(-676.1 -111.56)"/><path class="cls-2" d="M1265.63,205.8a7.28,7.28,0,1,1,12.65,7.2c-2,3.51-7.77,5.72-9.91,4.51C1265.43,215.83,1263.63,209.31,1265.63,205.8Z" transform="translate(-676.1 -111.56)"/><path class="cls-1" d="M1267.29,206.7a5.11,5.11,0,0,1,6.59-1.76c2.13,1.21,3.84,4.5,2.62,6.65s-6,3.83-7.34,3.08C1267.37,213.65,1266.07,208.84,1267.29,206.7Z" transform="translate(-676.1 -111.56)"/><path class="cls-4" d="M1273.35,213.61a4.07,4.07,0,0,0,1.85-2.27.41.41,0,0,0,0-.27c0-.12-.19-.17-.31-.2a10.66,10.66,0,0,0-2.38-.23l-1.55,0a1.92,1.92,0,0,0-1.08.19c-1,.61-.44,2.31.31,2.85A3.38,3.38,0,0,0,1273.35,213.61Z" transform="translate(-676.1 -111.56)"/><path class="cls-2" d="M1294.58,403.3a7.28,7.28,0,1,1-14.23-3c.84-4,5.68-7.8,8.09-7.29C1291.75,393.68,1295.43,399.35,1294.58,403.3Z" transform="translate(-676.1 -111.56)"/><path class="cls-1" d="M1292.73,402.94a5.11,5.11,0,0,1-5.75,3.66c-2.4-.51-5-3.13-4.51-5.54s4.6-5.47,6.07-5.16C1290.56,396.34,1293.24,400.53,1292.73,402.94Z" transform="translate(-676.1 -111.56)"/><path class="cls-4" d="M1284.86,398.18a4.07,4.07,0,0,0-1.07,2.73.31.31,0,0,0,.42.37,10.66,10.66,0,0,0,2.34-.5l1.49-.44a1.92,1.92,0,0,0,1-.51c.73-.87-.28-2.33-1.16-2.63A3.38,3.38,0,0,0,1284.86,398.18Z" transform="translate(-676.1 -111.56)"/><path class="cls-2" d="M1258.32,391.86a7.28,7.28,0,1,1,8.7-11.67c3.24,2.42,4.72,8.42,3.25,10.39C1268.25,393.29,1261.56,394.27,1258.32,391.86Z" transform="translate(-676.1 -111.56)"/><path class="cls-1" d="M1259.42,390.32a5.11,5.11,0,0,1-.93-6.76c1.47-2,4.94-3.26,6.92-1.78s3.05,6.46,2.15,7.67C1266.33,391.1,1261.4,391.79,1259.42,390.32Z" transform="translate(-676.1 -111.56)"/><path class="cls-4" d="M1267,385.16a4.07,4.07,0,0,0-2-2.11.41.41,0,0,0-.27-.06c-.13,0-.2.16-.24.29a10.65,10.65,0,0,0-.52,2.33l-.22,1.54a1.93,1.93,0,0,0,.06,1.09c.48,1,2.24.72,2.87,0A3.38,3.38,0,0,0,1267,385.16Z" transform="translate(-676.1 -111.56)"/><path class="cls-2" d="M1250.27,441.3a7.28,7.28,0,1,1,8.7-11.67c3.24,2.42,4.72,8.42,3.25,10.39C1260.2,442.74,1253.51,443.72,1250.27,441.3Z" transform="translate(-676.1 -111.56)"/><path class="cls-1" d="M1251.37,439.76a5.11,5.11,0,0,1-.93-6.76c1.47-2,4.94-3.26,6.92-1.78s3.05,6.46,2.15,7.67C1258.28,440.55,1253.35,441.24,1251.37,439.76Z" transform="translate(-676.1 -111.56)"/><path class="cls-4" d="M1259,434.61a4.07,4.07,0,0,0-2-2.11.41.41,0,0,0-.27-.06c-.13,0-.2.16-.24.29a10.66,10.66,0,0,0-.52,2.33l-.22,1.54a1.92,1.92,0,0,0,.06,1.09c.48,1,2.24.72,2.87,0A3.38,3.38,0,0,0,1259,434.61Z" transform="translate(-676.1 -111.56)"/><path class="cls-2" d="M1299.8,331.64a4.43,4.43,0,1,1,5.3-7.1c2,1.47,2.87,5.12,2,6.32C1305.84,332.51,1301.77,333.11,1299.8,331.64Z" transform="translate(-676.1 -111.56)"/><path class="cls-1" d="M1300.46,330.7a3.11,3.11,0,0,1-.57-4.11c.89-1.2,3-2,4.21-1.08s1.86,3.93,1.31,4.67C1304.67,331.18,1301.67,331.6,1300.46,330.7Z" transform="translate(-676.1 -111.56)"/><path class="cls-4" d="M1305.09,327.56a2.48,2.48,0,0,0-1.23-1.29.25.25,0,0,0-.16,0c-.08,0-.12.1-.15.17a6.48,6.48,0,0,0-.31,1.42l-.14.94a1.17,1.17,0,0,0,0,.67c.29.63,1.36.44,1.75,0A2.05,2.05,0,0,0,1305.09,327.56Z" transform="translate(-676.1 -111.56)"/><path class="cls-2" d="M1226.12,452.14a4.43,4.43,0,1,1,5.3-7.1c2,1.47,2.87,5.12,2,6.32C1232.16,453,1228.09,453.61,1226.12,452.14Z" transform="translate(-676.1 -111.56)"/><path class="cls-1" d="M1226.78,451.2a3.11,3.11,0,0,1-.57-4.11c.89-1.2,3-2,4.21-1.08s1.86,3.93,1.31,4.67C1231,451.68,1228,452.1,1226.78,451.2Z" transform="translate(-676.1 -111.56)"/><path class="cls-4" d="M1231.41,448.07a2.48,2.48,0,0,0-1.23-1.29.25.25,0,0,0-.16,0c-.08,0-.12.1-.15.17a6.48,6.48,0,0,0-.31,1.42l-.14.94a1.17,1.17,0,0,0,0,.67c.29.63,1.36.44,1.75,0A2.05,2.05,0,0,0,1231.41,448.07Z" transform="translate(-676.1 -111.56)"/><path class="cls-2" d="M1225.49,388.7a4.43,4.43,0,1,1,5.3-7.1c2,1.47,2.87,5.12,2,6.32C1231.53,389.57,1227.46,390.17,1225.49,388.7Z" transform="translate(-676.1 -111.56)"/><path class="cls-1" d="M1226.16,387.76a3.11,3.11,0,0,1-.57-4.11c.89-1.2,3-2,4.21-1.08s1.86,3.93,1.31,4.67C1230.36,388.24,1227.36,388.66,1226.16,387.76Z" transform="translate(-676.1 -111.56)"/><path class="cls-4" d="M1230.79,384.62a2.48,2.48,0,0,0-1.23-1.29.25.25,0,0,0-.16,0c-.08,0-.12.1-.15.17a6.48,6.48,0,0,0-.31,1.42l-.14.94a1.17,1.17,0,0,0,0,.67c.29.63,1.36.44,1.75,0A2.05,2.05,0,0,0,1230.79,384.62Z" transform="translate(-676.1 -111.56)"/><path class="cls-2" d="M1312.64,491.81a4.43,4.43,0,1,1,5.3-7.1c2,1.47,2.87,5.12,2,6.32C1318.68,492.68,1314.61,493.28,1312.64,491.81Z" transform="translate(-676.1 -111.56)"/><path class="cls-1" d="M1313.31,490.87a3.11,3.11,0,0,1-.57-4.11c.89-1.2,3-2,4.21-1.08s1.86,3.93,1.31,4.67C1317.51,491.35,1314.51,491.77,1313.31,490.87Z" transform="translate(-676.1 -111.56)"/><path class="cls-4" d="M1317.94,487.73a2.48,2.48,0,0,0-1.23-1.29.25.25,0,0,0-.16,0c-.08,0-.12.1-.15.17a6.48,6.48,0,0,0-.31,1.42l-.14.94a1.17,1.17,0,0,0,0,.67c.29.63,1.36.44,1.75,0A2.05,2.05,0,0,0,1317.94,487.73Z" transform="translate(-676.1 -111.56)"/><path class="cls-2" d="M1255.64,416.81a4.43,4.43,0,1,1,5.3-7.1c2,1.47,2.87,5.12,2,6.32C1261.68,417.68,1257.61,418.28,1255.64,416.81Z" transform="translate(-676.1 -111.56)"/><path class="cls-1" d="M1256.31,415.87a3.11,3.11,0,0,1-.57-4.11c.89-1.2,3-2,4.21-1.08s1.86,3.93,1.31,4.67C1260.51,416.35,1257.51,416.77,1256.31,415.87Z" transform="translate(-676.1 -111.56)"/><path class="cls-4" d="M1260.94,412.73a2.48,2.48,0,0,0-1.23-1.29.25.25,0,0,0-.16,0c-.08,0-.12.1-.15.17a6.48,6.48,0,0,0-.31,1.42l-.14.94a1.17,1.17,0,0,0,0,.67c.29.63,1.36.44,1.75,0A2.05,2.05,0,0,0,1260.94,412.73Z" transform="translate(-676.1 -111.56)"/><path class="cls-2" d="M1227.22,166.83a4.43,4.43,0,1,1,5.3-7.1c2,1.47,2.87,5.12,2,6.32C1233.26,167.7,1229.19,168.3,1227.22,166.83Z" transform="translate(-676.1 -111.56)"/><path class="cls-1" d="M1227.89,165.89a3.11,3.11,0,0,1-.57-4.11c.89-1.2,3-2,4.21-1.08s1.86,3.93,1.31,4.67C1232.1,166.37,1229.09,166.79,1227.89,165.89Z" transform="translate(-676.1 -111.56)"/><path class="cls-4" d="M1232.52,162.75a2.48,2.48,0,0,0-1.23-1.29.25.25,0,0,0-.16,0c-.08,0-.12.1-.15.17a6.48,6.48,0,0,0-.31,1.42l-.14.94a1.17,1.17,0,0,0,0,.67c.29.63,1.36.44,1.75,0A2.05,2.05,0,0,0,1232.52,162.75Z" transform="translate(-676.1 -111.56)"/><path class="cls-2" d="M1259.08,339a4.43,4.43,0,1,1,5.3-7.1c2,1.47,2.87,5.12,2,6.32C1265.12,339.88,1261,340.47,1259.08,339Z" transform="translate(-676.1 -111.56)"/><path class="cls-1" d="M1259.74,338.07a3.11,3.11,0,0,1-.57-4.11c.89-1.2,3-2,4.21-1.08s1.86,3.93,1.31,4.67C1263.95,338.54,1260.95,339,1259.74,338.07Z" transform="translate(-676.1 -111.56)"/><path class="cls-4" d="M1264.37,334.93a2.48,2.48,0,0,0-1.23-1.29.25.25,0,0,0-.16,0c-.08,0-.12.1-.15.17a6.48,6.48,0,0,0-.31,1.42l-.14.94a1.17,1.17,0,0,0,0,.67c.29.63,1.36.44,1.75,0A2.05,2.05,0,0,0,1264.37,334.93Z" transform="translate(-676.1 -111.56)"/><path class="cls-2" d="M1280.08,437a4.43,4.43,0,1,1,5.3-7.1c2,1.47,2.87,5.12,2,6.32C1286.12,437.88,1282,438.47,1280.08,437Z" transform="translate(-676.1 -111.56)"/><path class="cls-1" d="M1280.74,436.07a3.11,3.11,0,0,1-.57-4.11c.89-1.2,3-2,4.21-1.08s1.86,3.93,1.31,4.67C1284.95,436.54,1281.95,437,1280.74,436.07Z" transform="translate(-676.1 -111.56)"/><path class="cls-4" d="M1285.37,432.93a2.48,2.48,0,0,0-1.23-1.29.25.25,0,0,0-.16,0c-.08,0-.12.1-.15.17a6.48,6.48,0,0,0-.31,1.42l-.14.94a1.17,1.17,0,0,0,0,.67c.29.63,1.36.44,1.75,0A2.05,2.05,0,0,0,1285.37,432.93Z" transform="translate(-676.1 -111.56)"/><path class="cls-2" d="M1233.49,421.7a4.43,4.43,0,1,1,5.3-7.1c2,1.47,2.87,5.12,2,6.32C1239.53,422.57,1235.46,423.17,1233.49,421.7Z" transform="translate(-676.1 -111.56)"/><path class="cls-1" d="M1234.16,420.76a3.11,3.11,0,0,1-.57-4.11c.89-1.2,3-2,4.21-1.08s1.86,3.93,1.31,4.67C1238.36,421.24,1235.36,421.66,1234.16,420.76Z" transform="translate(-676.1 -111.56)"/><path class="cls-4" d="M1238.79,417.62a2.48,2.48,0,0,0-1.23-1.29.25.25,0,0,0-.16,0c-.08,0-.12.1-.15.17a6.48,6.48,0,0,0-.31,1.42l-.14.94a1.17,1.17,0,0,0,0,.67c.29.63,1.36.44,1.75,0A2.05,2.05,0,0,0,1238.79,417.62Z" transform="translate(-676.1 -111.56)"/><path class="cls-2" d="M1301.68,308.68a4.43,4.43,0,1,1,5.3-7.1c2,1.47,2.87,5.12,2,6.32C1307.72,309.55,1303.65,310.15,1301.68,308.68Z" transform="translate(-676.1 -111.56)"/><path class="cls-1" d="M1302.35,307.74a3.11,3.11,0,0,1-.57-4.11c.89-1.2,3-2,4.21-1.08s1.86,3.93,1.31,4.67C1306.55,308.22,1303.55,308.64,1302.35,307.74Z" transform="translate(-676.1 -111.56)"/><path class="cls-4" d="M1307,304.61a2.48,2.48,0,0,0-1.23-1.29.25.25,0,0,0-.16,0c-.08,0-.12.1-.15.17a6.48,6.48,0,0,0-.31,1.42l-.14.94a1.17,1.17,0,0,0,0,.67c.29.63,1.36.44,1.75,0A2.05,2.05,0,0,0,1307,304.61Z" transform="translate(-676.1 -111.56)"/><path class="cls-2" d="M1223.47,489.51a4.43,4.43,0,1,1,5.3-7.1c2,1.47,2.87,5.12,2,6.32C1229.51,490.39,1225.44,491,1223.47,489.51Z" transform="translate(-676.1 -111.56)"/><path class="cls-1" d="M1224.14,488.58a3.11,3.11,0,0,1-.57-4.11c.89-1.2,3-2,4.21-1.08s1.86,3.93,1.31,4.67C1228.34,489.05,1225.34,489.48,1224.14,488.58Z" transform="translate(-676.1 -111.56)"/><path class="cls-4" d="M1228.77,485.44a2.48,2.48,0,0,0-1.23-1.29.25.25,0,0,0-.16,0c-.08,0-.12.1-.15.17a6.48,6.48,0,0,0-.31,1.42l-.14.94a1.17,1.17,0,0,0,0,.67c.29.63,1.36.44,1.75,0A2.05,2.05,0,0,0,1228.77,485.44Z" transform="translate(-676.1 -111.56)"/><path class="cls-2" d="M1307.4,260.5a4.43,4.43,0,1,1,7.06,5.34c-1.48,2-5.14,2.84-6.34,1.94C1306.48,266.53,1305.91,262.46,1307.4,260.5Z" transform="translate(-676.1 -111.56)"/><path class="cls-1" d="M1308.33,261.17a3.11,3.11,0,0,1,4.11-.54c1.19.9,2,3,1.06,4.22s-3.94,1.83-4.67,1.28C1307.82,265.37,1307.42,262.37,1308.33,261.17Z" transform="translate(-676.1 -111.56)"/><path class="cls-4" d="M1311.43,265.82a2.48,2.48,0,0,0,1.29-1.23.25.25,0,0,0,0-.16c0-.08-.1-.12-.17-.15a6.49,6.49,0,0,0-1.42-.32l-.94-.14a1.17,1.17,0,0,0-.67,0c-.63.29-.45,1.36,0,1.75A2.05,2.05,0,0,0,1311.43,265.82Z" transform="translate(-676.1 -111.56)"/><path class="cls-2" d="M1308.2,376.14a4.43,4.43,0,1,1,7.06,5.34c-1.48,2-5.14,2.84-6.34,1.93C1307.28,382.18,1306.71,378.1,1308.2,376.14Z" transform="translate(-676.1 -111.56)"/><path class="cls-1" d="M1309.13,376.82a3.11,3.11,0,0,1,4.11-.54c1.19.9,2,3,1.06,4.22s-3.94,1.83-4.67,1.28C1308.62,381,1308.22,378,1309.13,376.82Z" transform="translate(-676.1 -111.56)"/><path class="cls-4" d="M1312.24,381.47a2.48,2.48,0,0,0,1.29-1.23.25.25,0,0,0,0-.16c0-.08-.1-.12-.17-.15a6.48,6.48,0,0,0-1.42-.32l-.94-.14a1.17,1.17,0,0,0-.67,0c-.63.29-.45,1.36,0,1.75A2.05,2.05,0,0,0,1312.24,381.47Z" transform="translate(-676.1 -111.56)"/><path class="cls-2" d="M1259.94,461.28a4.43,4.43,0,1,1,7.06,5.34c-1.48,2-5.14,2.84-6.34,1.93C1259,467.32,1258.45,463.24,1259.94,461.28Z" transform="translate(-676.1 -111.56)"/><path class="cls-1" d="M1260.87,462a3.11,3.11,0,0,1,4.11-.54c1.19.9,2,3,1.06,4.22s-3.94,1.83-4.67,1.28C1260.37,466.16,1260,463.15,1260.87,462Z" transform="translate(-676.1 -111.56)"/><path class="cls-4" d="M1264,466.61a2.48,2.48,0,0,0,1.29-1.23.25.25,0,0,0,0-.16c0-.08-.1-.12-.17-.15a6.49,6.49,0,0,0-1.42-.32l-.94-.14a1.17,1.17,0,0,0-.67,0c-.63.29-.45,1.36,0,1.75A2.05,2.05,0,0,0,1264,466.61Z" transform="translate(-676.1 -111.56)"/><path class="cls-2" d="M1242.36,462.55a4.43,4.43,0,1,1,7.06,5.34c-1.48,2-5.14,2.84-6.34,1.93C1241.44,468.59,1240.87,464.51,1242.36,462.55Z" transform="translate(-676.1 -111.56)"/><path class="cls-1" d="M1243.29,463.22a3.11,3.11,0,0,1,4.11-.54c1.19.9,2,3,1.06,4.22s-3.94,1.83-4.67,1.28C1242.79,467.43,1242.38,464.42,1243.29,463.22Z" transform="translate(-676.1 -111.56)"/><path class="cls-4" d="M1246.4,467.87a2.48,2.48,0,0,0,1.29-1.23.25.25,0,0,0,0-.16c0-.08-.1-.12-.17-.15a6.48,6.48,0,0,0-1.42-.32l-.94-.14a1.17,1.17,0,0,0-.67,0c-.63.29-.45,1.36,0,1.75A2.05,2.05,0,0,0,1246.4,467.87Z" transform="translate(-676.1 -111.56)"/><path class="cls-2" d="M1263.78,485.82a4.43,4.43,0,1,1,7.06,5.34c-1.48,2-5.14,2.84-6.34,1.93C1262.87,491.85,1262.3,487.78,1263.78,485.82Z" transform="translate(-676.1 -111.56)"/><path class="cls-1" d="M1264.71,486.49a3.11,3.11,0,0,1,4.11-.54c1.19.9,2,3,1.06,4.22s-3.94,1.83-4.67,1.28C1264.21,490.69,1263.81,487.69,1264.71,486.49Z" transform="translate(-676.1 -111.56)"/><path class="cls-4" d="M1267.82,491.14a2.48,2.48,0,0,0,1.29-1.23.25.25,0,0,0,0-.16c0-.08-.1-.12-.17-.15a6.48,6.48,0,0,0-1.42-.32l-.94-.14a1.17,1.17,0,0,0-.67,0c-.63.29-.45,1.36,0,1.75A2.05,2.05,0,0,0,1267.82,491.14Z" transform="translate(-676.1 -111.56)"/><path class="cls-2" d="M1257.22,290.83a4.43,4.43,0,1,1,5.3-7.1c2,1.47,2.87,5.12,2,6.32C1263.26,291.7,1259.19,292.3,1257.22,290.83Z" transform="translate(-676.1 -111.56)"/><path class="cls-1" d="M1257.89,289.89a3.11,3.11,0,0,1-.57-4.11c.89-1.2,3-2,4.21-1.08s1.86,3.93,1.31,4.67C1262.1,290.37,1259.09,290.79,1257.89,289.89Z" transform="translate(-676.1 -111.56)"/><path class="cls-4" d="M1262.52,286.75a2.48,2.48,0,0,0-1.23-1.29.25.25,0,0,0-.16,0c-.08,0-.12.1-.15.17a6.48,6.48,0,0,0-.31,1.42l-.14.94a1.17,1.17,0,0,0,0,.67c.29.63,1.36.44,1.75,0A2.05,2.05,0,0,0,1262.52,286.75Z" transform="translate(-676.1 -111.56)"/><path class="cls-2" d="M1290.54,255.41a4.43,4.43,0,1,1,5.3-7.1c2,1.47,2.87,5.12,2,6.32C1296.58,256.28,1292.51,256.88,1290.54,255.41Z" transform="translate(-676.1 -111.56)"/><path class="cls-1" d="M1291.21,254.47a3.11,3.11,0,0,1-.57-4.11c.89-1.2,3-2,4.21-1.08s1.86,3.93,1.31,4.67C1295.41,255,1292.41,255.37,1291.21,254.47Z" transform="translate(-676.1 -111.56)"/><path class="cls-4" d="M1295.84,251.34a2.48,2.48,0,0,0-1.23-1.29.25.25,0,0,0-.16,0c-.08,0-.12.1-.15.17a6.48,6.48,0,0,0-.31,1.42l-.14.94a1.17,1.17,0,0,0,0,.67c.29.63,1.36.44,1.75,0A2.05,2.05,0,0,0,1295.84,251.34Z" transform="translate(-676.1 -111.56)"/><path class="cls-2" d="M1310.08,207a4.43,4.43,0,1,1,5.3-7.1c2,1.47,2.87,5.12,2,6.32C1316.12,207.88,1312,208.47,1310.08,207Z" transform="translate(-676.1 -111.56)"/><path class="cls-1" d="M1310.74,206.07a3.11,3.11,0,0,1-.57-4.11c.89-1.2,3-2,4.21-1.08s1.86,3.93,1.31,4.67C1314.95,206.54,1311.95,207,1310.74,206.07Z" transform="translate(-676.1 -111.56)"/><path class="cls-4" d="M1315.37,202.93a2.48,2.48,0,0,0-1.23-1.29.25.25,0,0,0-.16,0c-.08,0-.12.1-.15.17a6.49,6.49,0,0,0-.31,1.42l-.14.94a1.17,1.17,0,0,0,0,.67c.29.63,1.36.44,1.75,0A2.05,2.05,0,0,0,1315.37,202.93Z" transform="translate(-676.1 -111.56)"/><path class="cls-2" d="M1309.67,157.47a4.43,4.43,0,1,1,5.3-7.1c2,1.47,2.87,5.12,2,6.32C1315.71,158.35,1311.64,158.94,1309.67,157.47Z" transform="translate(-676.1 -111.56)"/><path class="cls-1" d="M1310.34,156.54a3.11,3.11,0,0,1-.57-4.11c.89-1.2,3-2,4.21-1.08s1.86,3.93,1.31,4.67C1314.55,157,1311.54,157.43,1310.34,156.54Z" transform="translate(-676.1 -111.56)"/><path class="cls-4" d="M1315,153.4a2.48,2.48,0,0,0-1.23-1.29.25.25,0,0,0-.16,0c-.08,0-.12.1-.15.17a6.48,6.48,0,0,0-.31,1.42l-.14.94a1.17,1.17,0,0,0,0,.67c.29.63,1.36.44,1.75,0A2.05,2.05,0,0,0,1315,153.4Z" transform="translate(-676.1 -111.56)"/><path class="cls-2" d="M1241.33,310.2a7.28,7.28,0,1,1,12.75,7c-1.95,3.54-7.69,5.83-9.85,4.64C1241.27,320.23,1239.39,313.74,1241.33,310.2Z" transform="translate(-676.1 -111.56)"/><path class="cls-1" d="M1243,311.08a5.11,5.11,0,0,1,6.56-1.85c2.15,1.18,3.91,4.45,2.72,6.61s-6,3.91-7.3,3.19C1243.18,318,1241.82,313.24,1243,311.08Z" transform="translate(-676.1 -111.56)"/><path class="cls-4" d="M1249.16,317.91a4.07,4.07,0,0,0,1.82-2.3.31.31,0,0,0-.29-.47,10.65,10.65,0,0,0-2.38-.19h-1.55a1.92,1.92,0,0,0-1.08.21c-1,.62-.41,2.31.35,2.85A3.38,3.38,0,0,0,1249.16,317.91Z" transform="translate(-676.1 -111.56)"/><path class="cls-2" d="M1313.33,361a7.28,7.28,0,1,1-11-9.53c2.65-3.06,8.74-4.09,10.6-2.48C1315.49,351.17,1316,357.92,1313.33,361Z" transform="translate(-676.1 -111.56)"/><path class="cls-1" d="M1311.88,359.76a5.11,5.11,0,0,1-6.81.43c-1.85-1.61-2.89-5.17-1.27-7s6.67-2.57,7.81-1.59C1313.17,352.93,1313.5,357.9,1311.88,359.76Z" transform="translate(-676.1 -111.56)"/><path class="cls-4" d="M1307.29,351.8a4.07,4.07,0,0,0-2.26,1.87.41.41,0,0,0-.08.26c0,.13.15.21.27.26a10.66,10.66,0,0,0,2.29.69l1.52.33a1.92,1.92,0,0,0,1.09,0c1.06-.41.88-2.18.25-2.86A3.38,3.38,0,0,0,1307.29,351.8Z" transform="translate(-676.1 -111.56)"/><path class="cls-2" d="M1294.43,218.37a6.33,6.33,0,1,1,11.09,6.1c-1.69,3.08-6.69,5.07-8.56,4C1294.37,227.09,1292.73,221.45,1294.43,218.37Z" transform="translate(-676.1 -111.56)"/><path class="cls-1" d="M1295.88,219.13a4.44,4.44,0,0,1,5.71-1.61c1.87,1,3.4,3.87,2.36,5.75s-5.2,3.4-6.35,2.77C1296,225.17,1294.85,221,1295.88,219.13Z" transform="translate(-676.1 -111.56)"/><path class="cls-4" d="M1301.23,225.07a3.54,3.54,0,0,0,1.58-2,.27.27,0,0,0-.26-.41,9.26,9.26,0,0,0-2.07-.17h-1.35a1.67,1.67,0,0,0-.94.18c-.83.54-.35,2,.31,2.48A2.93,2.93,0,0,0,1301.23,225.07Z" transform="translate(-676.1 -111.56)"/><path class="cls-2" d="M1229,274.21a11.42,11.42,0,0,1,22.84,0c0,6.31-6.16,13.76-10,13.76C1236.46,288,1229,280.52,1229,274.21Z" transform="translate(-676.1 -111.56)"/><path class="cls-1" d="M1231.92,274.15c0-3.85,3.77-7.46,7.62-7.46s8.73,3.14,8.73,7-5.26,9.85-7.62,9.85C1237.42,283.52,1231.92,278,1231.92,274.15Z" transform="translate(-676.1 -111.56)"/><path class="cls-4" d="M1245.55,278.85a6.32,6.32,0,0,0,.76-4.51.64.64,0,0,0-.18-.39.65.65,0,0,0-.59,0,16.76,16.76,0,0,0-3.42,1.53l-2.14,1.16a3,3,0,0,0-1.32,1.09c-.84,1.57,1.19,3.47,2.64,3.63S1244.76,280.09,1245.55,278.85Z" transform="translate(-676.1 -111.56)"/><path class="cls-2" d="M1289.28,468.12a11.42,11.42,0,1,1,22.84,0c0,6.31-6.16,13.76-10,13.76C1296.79,481.88,1289.28,474.43,1289.28,468.12Z" transform="translate(-676.1 -111.56)"/><path class="cls-1" d="M1292.25,468.06c0-3.85,3.77-7.46,7.62-7.46s8.73,3.14,8.73,7-5.26,9.85-7.62,9.85C1297.74,477.43,1292.25,471.91,1292.25,468.06Z" transform="translate(-676.1 -111.56)"/><path class="cls-4" d="M1305.87,472.76a6.32,6.32,0,0,0,.76-4.51.64.64,0,0,0-.18-.39.65.65,0,0,0-.59,0,16.77,16.77,0,0,0-3.42,1.53l-2.14,1.16a3,3,0,0,0-1.32,1.09c-.84,1.56,1.19,3.47,2.64,3.63S1305.09,474,1305.87,472.76Z" transform="translate(-676.1 -111.56)"/><path class="cls-2" d="M1244.81,176.37a11.42,11.42,0,1,1,22.84,0c0,6.31-6.16,13.76-10,13.76C1252.32,190.12,1244.81,182.67,1244.81,176.37Z" transform="translate(-676.1 -111.56)"/><path class="cls-1" d="M1247.78,176.31c0-3.85,3.77-7.46,7.62-7.46s8.73,3.14,8.73,7-5.26,9.85-7.62,9.85C1253.28,185.68,1247.78,180.16,1247.78,176.31Z" transform="translate(-676.1 -111.56)"/><path class="cls-4" d="M1261.4,181a6.32,6.32,0,0,0,.76-4.51.64.64,0,0,0-.18-.39.65.65,0,0,0-.59,0,16.76,16.76,0,0,0-3.42,1.53l-2.14,1.16a3,3,0,0,0-1.32,1.09c-.84,1.57,1.19,3.47,2.64,3.63S1260.62,182.25,1261.4,181Z" transform="translate(-676.1 -111.56)"/><path class="cls-2" d="M1202.38,420.74a5.23,5.23,0,0,0,9.16-5c-1.39-2.53-5.51-4.16-7.06-3.31C1202.35,413.57,1201,418.21,1202.38,420.74Z" transform="translate(-676.1 -111.56)"/><path class="cls-1" d="M1203.29,420.32a4,4,0,0,0,5.16,1.44c1.69-.93,3.08-3.49,2.15-5.18s-4.7-3.05-5.73-2.48C1203.44,414.87,1202.36,418.63,1203.29,420.32Z" transform="translate(-676.1 -111.56)"/><path class="cls-3" d="M1208,415.22a2.89,2.89,0,0,1,1.3,1.64.29.29,0,0,1,0,.2.3.3,0,0,1-.23.14,7.68,7.68,0,0,1-1.71.14h-1.12a1.38,1.38,0,0,1-.77-.14c-.68-.44-.29-1.65.26-2A2.43,2.43,0,0,1,1208,415.22Z" transform="translate(-676.1 -111.56)"/><path class="cls-2" d="M1169.54,153.88a5.23,5.23,0,1,0,9.16-5c-1.39-2.53-5.51-4.16-7.06-3.31C1169.51,146.71,1168.15,151.35,1169.54,153.88Z" transform="translate(-676.1 -111.56)"/><path class="cls-1" d="M1170.45,153.46a4,4,0,0,0,5.16,1.44c1.69-.93,3.08-3.49,2.15-5.18s-4.7-3.05-5.73-2.48C1170.6,148,1169.52,151.77,1170.45,153.46Z" transform="translate(-676.1 -111.56)"/><path class="cls-3" d="M1175.17,148.36a2.9,2.9,0,0,1,1.3,1.64.29.29,0,0,1,0,.2.3.3,0,0,1-.23.14,7.68,7.68,0,0,1-1.71.14h-1.12a1.38,1.38,0,0,1-.77-.14c-.68-.44-.29-1.65.26-2A2.43,2.43,0,0,1,1175.17,148.36Z" transform="translate(-676.1 -111.56)"/><path class="cls-2" d="M1072.57,158.13a7.28,7.28,0,1,0,12.75-7c-1.95-3.54-7.69-5.83-9.85-4.64C1072.5,148.09,1070.62,154.59,1072.57,158.13Z" transform="translate(-676.1 -111.56)"/><path class="cls-1" d="M1074.24,157.25a5.11,5.11,0,0,0,6.56,1.85c2.15-1.18,3.91-4.45,2.72-6.61s-6-3.91-7.3-3.19C1074.41,150.3,1073,155.09,1074.24,157.25Z" transform="translate(-676.1 -111.56)"/><path class="cls-4" d="M1080.39,150.42a4.07,4.07,0,0,1,1.81,2.3.31.31,0,0,1-.29.47,10.65,10.65,0,0,1-2.38.19H1078a1.92,1.92,0,0,1-1.08-.21c-1-.62-.41-2.31.35-2.85A3.38,3.38,0,0,1,1080.39,150.42Z" transform="translate(-676.1 -111.56)"/><path class="cls-2" d="M995.77,420.72a7.28,7.28,0,1,0,8.7,11.67c3.24-2.42,4.72-8.42,3.25-10.39C1005.7,419.28,999,418.3,995.77,420.72Z" transform="translate(-676.1 -111.56)"/><path class="cls-1" d="M996.87,422.26a5.11,5.11,0,0,0-.93,6.76c1.47,2,4.94,3.26,6.92,1.78s3.05-6.46,2.15-7.67C1003.78,421.47,998.84,420.78,996.87,422.26Z" transform="translate(-676.1 -111.56)"/><path class="cls-4" d="M1004.48,427.42a4.07,4.07,0,0,1-2,2.11.41.41,0,0,1-.27.06c-.13,0-.2-.16-.24-.29a10.66,10.66,0,0,1-.52-2.33l-.22-1.54a1.92,1.92,0,0,1,.06-1.09c.48-1,2.24-.72,2.87,0A3.38,3.38,0,0,1,1004.48,427.42Z" transform="translate(-676.1 -111.56)"/><path class="cls-2" d="M1197.63,463.12a4.43,4.43,0,1,0,5.3,7.1c2-1.47,2.87-5.12,2-6.32C1203.67,462.24,1199.6,461.65,1197.63,463.12Z" transform="translate(-676.1 -111.56)"/><path class="cls-1" d="M1198.3,464.05a3.11,3.11,0,0,0-.57,4.11c.89,1.2,3,2,4.21,1.08s1.86-3.93,1.31-4.67C1202.5,463.58,1199.5,463.15,1198.3,464.05Z" transform="translate(-676.1 -111.56)"/><path class="cls-4" d="M1202.93,467.19a2.48,2.48,0,0,1-1.23,1.29.25.25,0,0,1-.16,0c-.08,0-.12-.1-.15-.17a6.48,6.48,0,0,1-.31-1.42l-.14-.94a1.17,1.17,0,0,1,0-.67c.29-.63,1.36-.44,1.75,0A2.05,2.05,0,0,1,1202.93,467.19Z" transform="translate(-676.1 -111.56)"/><path class="cls-2" d="M1163.92,386.14a4.43,4.43,0,1,0,5.3,7.1c2-1.47,2.87-5.12,2-6.32C1170,385.26,1165.89,384.67,1163.92,386.14Z" transform="translate(-676.1 -111.56)"/><path class="cls-1" d="M1164.59,387.07a3.11,3.11,0,0,0-.57,4.11c.89,1.2,3,2,4.21,1.08s1.86-3.93,1.31-4.67C1168.79,386.6,1165.79,386.18,1164.59,387.07Z" transform="translate(-676.1 -111.56)"/><path class="cls-4" d="M1169.21,390.21a2.48,2.48,0,0,1-1.23,1.29.25.25,0,0,1-.16,0c-.08,0-.12-.1-.15-.17a6.48,6.48,0,0,1-.31-1.42l-.14-.94a1.17,1.17,0,0,1,0-.67c.29-.63,1.36-.44,1.75,0A2.05,2.05,0,0,1,1169.21,390.21Z" transform="translate(-676.1 -111.56)"/><path class="cls-2" d="M924.92,429.14a4.43,4.43,0,1,0,5.3,7.1c2-1.47,2.87-5.12,2-6.32C931,428.26,926.89,427.67,924.92,429.14Z" transform="translate(-676.1 -111.56)"/><path class="cls-1" d="M925.59,430.07a3.11,3.11,0,0,0-.57,4.11c.89,1.2,3,2,4.21,1.08s1.86-3.93,1.31-4.67C929.79,429.6,926.79,429.18,925.59,430.07Z" transform="translate(-676.1 -111.56)"/><path class="cls-4" d="M930.21,433.21A2.48,2.48,0,0,1,929,434.5a.25.25,0,0,1-.16,0c-.08,0-.12-.1-.15-.17a6.48,6.48,0,0,1-.31-1.42l-.14-.94a1.17,1.17,0,0,1,0-.67c.29-.63,1.36-.44,1.75,0A2.05,2.05,0,0,1,930.21,433.21Z" transform="translate(-676.1 -111.56)"/><path class="cls-2" d="M943.11,287.44a4.43,4.43,0,1,0,7.06-5.34c-1.48-2-5.14-2.84-6.34-1.93C942.2,281.4,941.63,285.48,943.11,287.44Z" transform="translate(-676.1 -111.56)"/><path class="cls-1" d="M944,286.76a3.11,3.11,0,0,0,4.11.54c1.19-.9,2-3,1.06-4.22s-3.94-1.83-4.67-1.28C943.54,282.56,943.14,285.57,944,286.76Z" transform="translate(-676.1 -111.56)"/><path class="cls-4" d="M947.15,282.11a2.48,2.48,0,0,1,1.29,1.23.25.25,0,0,1,0,.16c0,.08-.1.12-.17.15a6.48,6.48,0,0,1-1.42.32l-.94.14a1.17,1.17,0,0,1-.67,0c-.63-.29-.45-1.36,0-1.75A2.05,2.05,0,0,1,947.15,282.11Z" transform="translate(-676.1 -111.56)"/><path class="cls-2" d="M960,146.47a4.43,4.43,0,1,0,5.3,7.1c2-1.47,2.87-5.12,2-6.32C966,145.6,961.92,145,960,146.47Z" transform="translate(-676.1 -111.56)"/><path class="cls-1" d="M960.62,147.41a3.11,3.11,0,0,0-.57,4.11c.89,1.2,3,2,4.21,1.08s1.86-3.93,1.31-4.67C964.82,146.93,961.82,146.51,960.62,147.41Z" transform="translate(-676.1 -111.56)"/><path class="cls-4" d="M965.25,150.55a2.48,2.48,0,0,1-1.23,1.29.25.25,0,0,1-.16,0c-.08,0-.12-.1-.15-.17a6.48,6.48,0,0,1-.31-1.42l-.14-.94a1.17,1.17,0,0,1,0-.67c.29-.63,1.36-.44,1.75,0A2.05,2.05,0,0,1,965.25,150.55Z" transform="translate(-676.1 -111.56)"/></g></svg>