<svg id="Laag_1" data-name="Laag 1" xmlns="http://www.w3.org/2000/svg" viewBox="0 0 79.45 140.59"><defs><style>.cls-1{fill:none;stroke:#f9b054;stroke-miterlimit:10;stroke-width:8px;}</style></defs><title>beer-glass</title><path class="cls-1" d="M112.41,37.62l-1.14,11.2-.2,2.05c-3,2.16-12,6.81-32.32,6.81-1.94,0-3.78,0-5.52-.12-.09-6.07.61-12,5.54-12A92.57,92.57,0,0,0,98.33,43.7c8.23-1.8,12.13-4.42,13.49-5.54L112,38A5.36,5.36,0,0,0,112.41,37.62Z" transform="translate(-38.27 -3.05)"/><path class="cls-1" d="M45.14,37.62l1.14,11.18.22,2.08A31.91,31.91,0,0,0,57,55.34" transform="translate(-38.27 -3.05)"/><path class="cls-1" d="M111.07,50.88l-8,78.66s-.34,3.94-2.54,5.44-7.48,5.15-21.78,5.15v0c-14.29,0-19.58-3.66-21.78-5.16s-2.52-5.44-2.52-5.44l-8-78.64A31.91,31.91,0,0,0,57,55.34a18.39,18.39,0,0,1,.64,4.7c0,11.76,2,18.07,8.46,18.07s6.59-3.89,7.28-9.92c.28-2.41-.14-6.55-.19-10.62,1.74.08,3.58.12,5.52.12C99.09,57.69,108,53,111.07,50.88Z" transform="translate(-38.27 -3.05)"/><path class="cls-1" d="M112.41,37.62a5.36,5.36,0,0,1-.4.39l-.19.16c-1.35,1.12-5.26,3.73-13.49,5.54a92.57,92.57,0,0,1-19.57,1.84c-4.93,0-5.63,6-5.54,12,0,4.08.47,8.21.19,10.62-.68,6-.87,9.92-7.28,9.92S57.67,71.8,57.67,60a18.39,18.39,0,0,0-.64-4.7,30.21,30.21,0,0,0-4.71-9.66,49.76,49.76,0,0,0-6.52-7.47l-.64-.56,0,0s-7.57-13.17,0-19.21,9.71.68,15.83-6.5,22.94-7.39,30.72.87S108.33,21,112.41,25.41,112.41,37.62,112.41,37.62Z" transform="translate(-38.27 -3.05)"/></svg>