<?xml version="1.0" encoding="utf-8"?>
<!-- Generator: Adobe Illustrator 21.0.2, SVG Export Plug-In . SVG Version: 6.00 Build 0)  -->
<svg version="1.1" id="Laag_1" xmlns="http://www.w3.org/2000/svg" xmlns:xlink="http://www.w3.org/1999/xlink" x="0px" y="0px"
	 viewBox="0 0 150 150" style="enable-background:new 0 0 150 150;" xml:space="preserve">
<style type="text/css">
	.st0{fill:#CCCCCC;}
	.st1{fill:#FFFFFF;}
</style>
<rect class="st0" width="150" height="150"/>
<path class="st1" d="M89.7,58.7h-4.9v-4.1c0-1.3-1.1-2.4-2.4-2.4H54.6c-1.3,0-2.4,1.1-2.4,2.4v40.7c0,1.3,1.1,2.4,2.4,2.4h27.7
	c1.3,0,2.4-1.1,2.4-2.4v-4.3l8.2-3.7c2.9-1.3,4.8-4.2,4.8-7.4V66.9C97.8,62.4,94.2,58.7,89.7,58.7z M91.3,80c0,0.6-0.4,1.2-1,1.5
	l-5.6,2.5V65.2h4.9c0.9,0,1.6,0.7,1.6,1.6V80z M73.4,88c-0.9,0-1.6-0.7-1.6-1.6V63.6c0-0.9,0.7-1.6,1.6-1.6s1.6,0.7,1.6,1.6v22.8
	C75,87.3,74.3,88,73.4,88z M63.6,88c-0.9,0-1.6-0.7-1.6-1.6V63.6c0-0.9,0.7-1.6,1.6-1.6s1.6,0.7,1.6,1.6v22.8
	C65.2,87.3,64.5,88,63.6,88z"/>
</svg>
