<?xml version="1.0" encoding="utf-8"?>
<!-- Generator: Adobe Illustrator 21.0.2, SVG Export Plug-In . SVG Version: 6.00 Build 0)  -->
<svg version="1.1" id="Laag_1" xmlns="http://www.w3.org/2000/svg" xmlns:xlink="http://www.w3.org/1999/xlink" x="0px" y="0px"
	 viewBox="0 0 150 150" style="enable-background:new 0 0 150 150;" xml:space="preserve">
<style type="text/css">
	.st0{fill:#CCCCCC;}
	.st1{fill:#FFFFFF;}
</style>
<rect class="st0" width="150" height="150"/>
<g>
	<path class="st1" d="M70.9,68.5v0.2h0C70.9,68.7,70.9,68.6,70.9,68.5z M74.4,65.3L74.4,65.3c0.1-0.7,0.1-1.2,0.2-1.6
		C74.5,64.1,74.4,64.6,74.4,65.3z M75.4,65.4c-0.3,0-0.7,0-1,0C74.7,65.4,75,65.4,75.4,65.4c0.8,0,1.6,0,2.3,0
		C76.9,65.3,76.2,65.4,75.4,65.4z M84.9,58.3c-0.3,0.1-0.5,0.1-0.8,0.2C84.3,58.5,84.6,58.4,84.9,58.3c0.4-0.1,0.7-0.2,1-0.2
		C85.6,58.2,85.2,58.3,84.9,58.3z M90.4,56.3c0.2-0.1,0.4-0.3,0.5-0.4c0,0,0,0,0,0C90.8,56,90.6,56.2,90.4,56.3z M93.3,64.7
		L93.3,64.7l0.5-4.5L93.3,64.7z"/>
	<path class="st1" d="M65.8,64.4L65.8,64.4c0,0.1,0,0.2,0.1,0.3L65.8,64.4z M70.9,69.6c0-0.2,0-0.4,0-0.6c0,0.1,0,0.3,0,0.4
		c0,0.2,0,0.4,0,0.5C70.9,69.8,70.9,69.7,70.9,69.6z M72.7,77.9c0.1-0.1,0.3-0.3,0.4-0.4C72.9,77.7,72.8,77.8,72.7,77.9z M76.4,68.9
		c0.6,0,1.2,0,1.8-0.1C77.7,68.8,77.1,68.9,76.4,68.9z M75.4,68.9c-0.3,0-0.7,0-1,0v0C74.7,68.9,75,68.9,75.4,68.9
		c0.2,0,0.3,0,0.5,0H75.4z M80.1,68.7c0.6-0.1,1.2-0.1,1.8-0.2C81.3,68.6,80.7,68.7,80.1,68.7z M83.9,68.2c0.8-0.1,1.5-0.3,2.1-0.4
		C85.4,68,84.7,68.1,83.9,68.2z M85.2,64.4c2.4-0.6,3.9-1.2,4.8-1.7v0C89.1,63.2,87.5,63.8,85.2,64.4z"/>
	<path class="st1" d="M70.9,65.2L70.9,65.2c0.1-0.9,0.2-1.7,0.4-2.5C71,63.5,70.9,64.4,70.9,65.2z M71.5,62c0.1-0.2,0.2-0.5,0.3-0.7
		C71.7,61.5,71.6,61.8,71.5,62z M72,61c0.1-0.2,0.3-0.4,0.5-0.6C72.3,60.6,72.2,60.8,72,61z M74.4,69.5c0-0.2,0-0.4,0-0.6h0
		c0,0.1,0,0.2,0,0.4c0.1,1.3,0.1,2.5,0,3.4l0,0.4c-0.1,0.7-0.2,1.4-0.3,2.1c0.2-0.7,0.3-1.5,0.3-2.2l0-0.3
		C74.5,71.7,74.5,70.7,74.4,69.5z M75.4,59.2c-1.1,0-2.1,0.4-2.9,1.2v0C73.3,59.7,74.3,59.3,75.4,59.2c1,0,2.1,0,3.1-0.1
		C77.4,59.2,76.4,59.3,75.4,59.2z M85.6,61.8c-0.4,0.1-0.8,0.2-1.2,0.2C84.8,62,85.2,61.9,85.6,61.8c0.5-0.1,1-0.2,1.5-0.4
		C86.6,61.6,86.1,61.7,85.6,61.8z M90,60.5c0.1,0,0.2-0.1,0.2-0.1v0C90.1,60.4,90.1,60.4,90,60.5z"/>
	<path class="st1" d="M93.6,49.7c-1.1-1.2-2.7-1.9-4.3-2.5c-1.9-0.8-4.1-1.7-6.1-3.8c-2.3-2.4-6-3.8-9.9-3.7
		c-3.5,0.1-6.5,1.3-8.2,3.3c-1.1,1.3-1.5,1.2-2.5,1.2c-1.2,0-2.9,0-5.2,1.8c-3.8,3-2.3,8.5-0.6,11.6l0.3,2.7l0,0l4.4,43.2
		c0,0.5,0.3,2.9,2,4.1c1.3,0.9,4.2,2.9,11.9,2.9c7.7,0,10.7-2,12-2.9c1.7-1.2,2-3.6,2-4l3.9-38.8l0.5-4.5l0-0.1l0.3-2.6
		C95,55.5,95.8,52,93.6,49.7z M60.8,62.7l0-0.4c0.1,0.2,0.3,0.4,0.4,0.6C61,62.8,60.9,62.7,60.8,62.7z M85.9,103.1
		c-0.1,0.6-0.3,1.3-0.5,1.5c-1,0.7-3.3,2.3-10,2.3c-6.6,0-9-1.6-10-2.3c-0.2-0.1-0.5-0.9-0.5-1.5l-3.7-36.3c0.6,0.2,1.1,0.4,1.7,0.6
		c0,0.3,0.1,0.6,0.1,0.9c0,3.2,0,10.9,6,10.9c1.8,0,2.9-0.5,3.7-1.2c0.1-0.1,0.2-0.3,0.4-0.4c0.1-0.1,0.1-0.1,0.2-0.2
		c0.2-0.3,0.4-0.6,0.5-0.9c0.1-0.1,0.1-0.3,0.1-0.4c0-0.1,0.1-0.3,0.1-0.4c0-0.1,0.1-0.3,0.1-0.4c0.2-0.7,0.2-1.4,0.3-2.1l0-0.4
		c0.1-0.9,0.1-2,0-3.4c0-0.1,0-0.2,0-0.4h0v0c0.3,0,0.6,0,1,0h0.5c0.2,0,0.3,0,0.5,0c0,0,0.1,0,0.1,0c0.6,0,1.2,0,1.8-0.1
		c0.3,0,0.6,0,0.9-0.1c0.3,0,0.6,0,0.9-0.1c0.6-0.1,1.2-0.1,1.8-0.2c0.2,0,0.4,0,0.6-0.1c0.1,0,0.1,0,0.2,0c0.4-0.1,0.9-0.1,1.3-0.2
		c0.8-0.1,1.5-0.3,2.1-0.4c0.3-0.1,0.5-0.1,0.7-0.2c0.3-0.1,0.5-0.1,0.8-0.2c0.2-0.1,0.4-0.1,0.6-0.2c0.1,0,0.2-0.1,0.3-0.1
		c0.4-0.1,0.7-0.3,1.1-0.4L85.9,103.1z M90.2,60.4L90,62.7v0c-0.9,0.5-2.4,1.2-4.8,1.7c-0.2,0-0.3,0.1-0.5,0.1
		c-0.2,0-0.4,0.1-0.5,0.1c-0.2,0-0.4,0.1-0.6,0.1c-0.4,0.1-0.8,0.1-1.3,0.2c-0.6,0.1-1.2,0.2-1.8,0.2c-0.2,0-0.4,0-0.7,0.1
		c-0.2,0-0.4,0-0.7,0.1c-0.2,0-0.5,0-0.7,0c-0.2,0-0.5,0-0.8,0c-0.7,0-1.5,0-2.3,0c-0.3,0-0.6,0-1,0h0c0-0.7,0.1-1.2,0.2-1.6
		c0-0.1,0-0.1,0-0.2c0-0.1,0-0.1,0.1-0.2c0-0.1,0-0.1,0.1-0.1c0.1-0.2,0.1-0.3,0.2-0.3c0,0,0,0,0,0c0,0,0,0,0,0c0,0,0,0,0,0
		c0,0,0,0,0,0c0.1,0,0.1-0.1,0.3-0.1h0.4c0.4,0,0.8,0,1.2,0c0.5,0,0.9,0,1.4,0c2-0.1,4-0.3,6-0.7c0.4-0.1,0.8-0.2,1.2-0.2
		c0.5-0.1,1-0.2,1.5-0.4c0.2,0,0.3-0.1,0.4-0.1c0,0,0.1,0,0.1,0c0.2-0.1,0.4-0.1,0.6-0.2c0.2-0.1,0.4-0.1,0.6-0.2
		c0.3-0.1,0.6-0.2,0.9-0.3c0.1,0,0.1-0.1,0.2-0.1C90.1,60.4,90.1,60.4,90.2,60.4L90.2,60.4z M90.9,55.9C90.9,56,90.9,56,90.9,55.9
		c-0.1,0.1-0.3,0.2-0.5,0.4c-0.1,0.1-0.2,0.1-0.3,0.2c0,0,0,0,0,0c-0.1,0.1-0.2,0.1-0.3,0.2c-0.1,0.1-0.2,0.1-0.3,0.2
		c-0.1,0.1-0.2,0.1-0.3,0.2c-0.1,0.1-0.3,0.1-0.4,0.2c-0.3,0.1-0.6,0.2-0.9,0.4c0,0,0,0,0,0c-0.2,0.1-0.3,0.1-0.5,0.2
		c-0.2,0.1-0.4,0.1-0.5,0.2c-0.3,0.1-0.6,0.2-0.9,0.3c-0.3,0.1-0.7,0.2-1,0.2c-0.3,0.1-0.5,0.1-0.8,0.2c-0.8,0.2-1.7,0.3-2.5,0.4
		c-0.7,0.1-1.5,0.2-2.2,0.2c-0.3,0-0.6,0-0.9,0.1c-1,0.1-2.1,0.1-3.1,0.1c-1.1,0-2.1,0.4-2.9,1.2c-0.2,0.2-0.3,0.4-0.5,0.6
		c-0.1,0.1-0.1,0.2-0.2,0.3c-0.1,0.2-0.2,0.5-0.3,0.7c-0.1,0.1-0.1,0.2-0.1,0.4c0,0.1-0.1,0.2-0.1,0.3c-0.2,0.8-0.3,1.6-0.4,2.5h0
		c0,0.6,0,1.2,0,1.8c0,0.4,0,0.9,0,1.3c0,0.1,0,0.1,0,0.2c0,0.1,0,0.1,0,0.2c0,0.1,0,0.2,0,0.3c0,0.2,0,0.4,0,0.6c0,0.1,0,0.2,0,0.3
		c0,0.9,0.1,1.8,0,2.3l0,0.4c-0.1,0.9-0.2,1.6-0.3,2c0,0.2-0.1,0.4-0.2,0.5c-0.3,0.5-0.6,0.5-1.4,0.5c-0.8,0-2.5,0-2.5-7.4
		c0-1-0.1-1.9-0.4-2.8c-0.1-0.2-0.1-0.5-0.2-0.7c0,0,0,0,0,0c0-0.1-0.1-0.2-0.1-0.3c-0.6-1.6-1.3-3.1-2.3-4.4c-1-1.5-2.2-2.8-3.5-4
		l-0.1-0.1c-0.5-1.1-2.5-5.4-0.3-7.2c1.3-1.1,2-1.1,3-1c1.7,0,3.2-0.1,5.2-2.5c1-1.2,3.2-2,5.6-2.1c2.9-0.1,5.7,0.9,7.3,2.6
		c2.5,2.7,5.2,3.8,7.4,4.7c1.3,0.5,2.5,1,3.1,1.7C91.9,53,91.3,55,90.9,55.9z"/>
</g>
</svg>
