<?xml version="1.0" encoding="utf-8"?>
<!-- Generator: Adobe Illustrator 21.0.2, SVG Export Plug-In . SVG Version: 6.00 Build 0)  -->
<svg version="1.1" id="Laag_1" xmlns="http://www.w3.org/2000/svg" xmlns:xlink="http://www.w3.org/1999/xlink" x="0px" y="0px"
	 viewBox="0 0 150 150" style="enable-background:new 0 0 150 150;" xml:space="preserve">
<style type="text/css">
	.st0{fill:#CCCCCC;}
	.st1{fill:#FFFFFF;}
</style>
<rect class="st0" width="150" height="150"/>
<g id="Laag_2">
	<g id="Laag_1-2">
		<path class="st1" d="M75,110.4c-19.4,0-27.8-5.2-28.1-5.4l-0.8-0.5v-13c0-3.6,5.4-9.6,15.6-11.2c7.5-1.2,7.5-7.5,7.5-8.2l0-0.1
			V39.6h11.8l0,32.5c0,0.7,0,7,7.5,8.2c10.1,1.6,15.5,7.5,15.5,11.2v13l-0.8,0.5C102.8,105.2,94.4,110.4,75,110.4z M49.5,102.5
			c2.4,1.2,10.5,4.4,25.5,4.4c15,0,23-3.3,25.5-4.5v-11c0-1.6-3.9-6.4-12.6-7.8c-8.6-1.4-10.6-8.2-10.4-11.7V43.1h-4.8V72
			c0.1,3.5-1.9,10.4-10.4,11.7c-8.8,1.4-12.6,6.4-12.6,7.8V102.5z"/>
		<rect x="77.4" y="41.3" class="st1" width="3.5" height="19.1"/>
		<rect x="69.1" y="41.3" class="st1" width="3.5" height="19.1"/>
		<path class="st1" d="M75,98.7c-19.4,0-27.8-5.2-28.1-5.4l-0.8-0.5v-1.3h2l0.7-1.1c0.1,0,8,4.9,26.3,4.9c18.2,0,26.2-4.8,26.3-4.9
			l0.7,1.1h2v1.3l-0.8,0.5C102.8,93.5,94.4,98.7,75,98.7z"/>
	</g>
</g>
</svg>
