<?xml version="1.0" encoding="utf-8"?>
<!-- Generator: Adobe Illustrator 21.0.2, SVG Export Plug-In . SVG Version: 6.00 Build 0)  -->
<svg version="1.1" id="Laag_1" xmlns="http://www.w3.org/2000/svg" xmlns:xlink="http://www.w3.org/1999/xlink" x="0px" y="0px"
	 viewBox="0 0 604 206.9" style="enable-background:new 0 0 604 206.9;" xml:space="preserve">
<style type="text/css">
	.st0{fill:#909090;}
</style>
<title>Middel 11</title>
<g id="Laag_2">
	<g id="Laag_1-2">
		<path class="st0" d="M217.5,110.7c-3.2-3.8-7.7-6.3-13.4-7.4c9-1.8,15.3-9.9,15-19c0.2-6.2-2.8-12.2-7.9-15.7
			c-5.3-3.9-12.5-5.8-21.7-5.8h-38.2v85.9h39.3c9.8,0,17.6-2.1,23.3-6.3c5.7-4.2,8.5-10,8.5-17.4
			C222.5,119.8,220.8,114.7,217.5,110.7z M167.7,77h20.9c4.3-0.1,7.6,0.8,10,2.6c2.4,1.8,3.7,4.6,3.6,7.6c0.1,3.1-1.2,6-3.6,7.9
			c-2.4,1.9-5.8,2.8-10,2.8h-20.9V77z M200.8,131.5c-3,2-7,3-12.3,2.9h-20.9v-22.7h20.9c5.2-0.1,9.3,0.9,12.3,2.9
			c2.8,1.8,4.5,4.9,4.4,8.3C205.4,126.4,203.7,129.6,200.8,131.5L200.8,131.5z"/>
		<path class="st0" d="M290.5,116.7c0-10.8-2.6-19.2-7.9-25.2s-13.2-9-23.6-9c-6-0.1-12,1.4-17.3,4.2c-5,2.7-9.1,6.9-11.9,11.8
			c-2.9,5.3-4.3,11.3-4.2,17.4c-0.1,6.1,1.3,12,4.2,17.4c2.7,5,6.8,9.1,11.9,11.7c5.5,2.9,11.6,4.3,17.7,4.2c5.4,0.1,10.7-1,15.7-3
			c4.6-1.9,8.7-4.7,12-8.4l-8.6-9c-2.3,2.4-5,4.2-8,5.5c-3.1,1.3-6.3,1.9-9.6,1.9c-9.1,0.4-17.1-6-18.8-15h48.5
			C290.4,120.4,290.5,118.8,290.5,116.7z M241.5,110.8c0.5-4.4,2.6-8.6,5.8-11.6c3.2-2.8,7.4-4.4,11.7-4.2c5,0,9,1.4,12,4.3
			s4.6,6.7,4.8,11.5H241.5z"/>
		<path class="st0" d="M357,116.7c0-10.8-2.6-19.2-7.9-25.2c-5.3-6-13.2-9-23.6-9c-6-0.1-12,1.4-17.3,4.2c-5,2.7-9.1,6.9-11.8,11.8
			c-2.9,5.3-4.4,11.3-4.3,17.4c-0.1,6.1,1.3,12,4.2,17.4c2.7,5,6.8,9,11.8,11.7c5.5,2.9,11.6,4.3,17.7,4.2c5.4,0.1,10.7-1,15.6-3
			c4.6-1.9,8.7-4.7,12-8.4l-8.6-9c-2.3,2.4-5,4.2-8,5.5c-3.1,1.3-6.3,1.9-9.6,1.9c-9.1,0.4-17.1-6-18.8-15h48.5
			C357,120.4,357,118.8,357,116.7z M308,110.8c0.5-4.4,2.6-8.6,5.8-11.6c3.2-2.8,7.4-4.4,11.7-4.2c5,0,9,1.4,12,4.3
			s4.6,6.7,4.8,11.5L308,110.8z"/>
		<path class="st0" d="M389.6,85.9c-3.9,2.3-7,5.7-9,9.8V83h-16v65.7h16V117c0-6,2-10.9,6.1-14.4s9.5-5.1,16.3-4.7V82.4
			C398.3,82.4,393.7,83.6,389.6,85.9z"/>
		<path class="st0" d="M408.5,57.6v91.1h16V57.6H408.5z"/>
		<path class="st0" d="M497.8,116.7c0-10.8-2.6-19.2-7.9-25.2c-5.3-6-13.2-9-23.6-9c-6-0.1-12,1.4-17.3,4.2
			c-5,2.7-9.1,6.9-11.9,11.8c-2.9,5.3-4.3,11.3-4.2,17.4c-0.1,6.1,1.3,12.1,4.1,17.4c2.7,5,6.8,9.1,11.9,11.7
			c5.5,2.9,11.6,4.3,17.7,4.2c5.4,0.1,10.7-1,15.6-3c4.6-1.9,8.7-4.7,12-8.4l-8.6-9c-2.3,2.4-5,4.2-8,5.5c-3.1,1.3-6.3,1.9-9.6,1.9
			c-9.1,0.4-17.1-6-18.8-15h48.5C497.8,120.4,497.8,118.8,497.8,116.7z M448.8,110.8c0.5-4.4,2.6-8.6,5.8-11.6
			c3.2-2.9,7.4-4.4,11.7-4.2c5,0,9,1.4,12,4.3s4.6,6.7,4.8,11.5L448.8,110.8z"/>
		<path class="st0" d="M547.7,118.9c-2.1-2.6-4.7-4.6-7.7-6c-3.7-1.6-7.4-3-11.3-4.1c-3.3-0.8-6.5-2-9.5-3.5c-1.8-0.9-3-2.7-3-4.7
			c-0.1-1.8,0.8-3.5,2.4-4.4c2-1,4.2-1.5,6.4-1.4c3.2,0.1,6.4,0.6,9.4,1.6c3.5,1.1,6.8,2.6,9.9,4.4l5.8-11.5
			c-3.5-2.3-7.2-4-11.2-5.2c-4.2-1.2-8.5-1.9-12.9-1.8c-7.1,0-13,1.7-17.7,5.1c-4.7,3.4-7.1,8.3-7.1,14.8c0,4.2,1,7.5,3.1,10.1
			c1.9,2.5,4.4,4.5,7.3,5.8c3.5,1.5,7.1,2.8,10.8,3.9c3.5,0.9,6.8,2.2,10,3.8c1.9,1,3.1,3,3.1,5.2c0.1,1.9-0.9,3.7-2.6,4.6
			c-2.2,1.1-4.6,1.6-7.1,1.5c-4,0-7.9-0.8-11.7-2.2c-3.9-1.3-7.4-3.3-10.5-6l-5.5,11.2c3.6,3.1,7.8,5.4,12.3,6.8
			c4.8,1.6,9.8,2.4,14.8,2.4c7.5,0,13.6-1.7,18.5-5.2s7.4-8.3,7.4-14.7C551,125.1,549.9,121.6,547.7,118.9z"/>
		<path class="st0" d="M600.7,118.9c-2.1-2.6-4.7-4.6-7.7-6c-3.7-1.6-7.4-3-11.3-4.1c-3.3-0.8-6.5-2-9.5-3.5c-1.8-0.9-3-2.7-3-4.7
			c-0.1-1.8,0.8-3.5,2.4-4.4c2-1,4.2-1.5,6.5-1.4c3.2,0.1,6.4,0.6,9.4,1.6c3.5,1.1,6.8,2.6,9.9,4.4l5.8-11.5
			c-3.5-2.3-7.2-4-11.2-5.2c-4.2-1.2-8.5-1.8-12.8-1.8c-7.1,0-13,1.7-17.7,5.1s-7.1,8.3-7.1,14.8c0,4.2,1,7.5,3.1,10.1
			c1.9,2.5,4.4,4.5,7.2,5.8c3.5,1.5,7.1,2.8,10.8,3.9c3.5,0.9,6.8,2.2,10,3.8c1.9,1,3.1,3,3.1,5.2c0.1,1.9-0.9,3.7-2.6,4.6
			c-2.2,1.1-4.7,1.6-7.1,1.5c-4,0-7.9-0.7-11.7-2.1c-3.9-1.3-7.5-3.3-10.6-6l-5.4,11.2c3.6,3.1,7.8,5.4,12.3,6.8
			c4.8,1.6,9.8,2.4,14.9,2.4c7.4,0,13.6-1.7,18.5-5.2s7.4-8.4,7.3-14.7C604,125.1,602.9,121.6,600.7,118.9z"/>
		<path class="st0" d="M122.2,8.9l-0.9,10.8l-9.8,115.2l-1.1,13.3l0,0v0.2l-1.9,22v0.1l-0.3,4v0.1l-1.9,22v0.2l0,0l-0.1,0.8l-3,1.4
			c-0.1,0.1-0.7,0.3-1.7,0.7h-0.1l-0.7,0.3l-0.8,0.3l-0.6,0.2l-0.3,0.1h-0.1l-1.3,0.4L97,201l0,0l-0.6,0.2l-1.5,0.5
			c-17.2,4.1-34.4-6.5-38.5-23.7c-0.6-2.4-0.9-4.9-0.9-7.4v-6.3l-18.7-18.6l-1.5-17.3l20.1,20.1v-14.2L34,112.8l-1.5-17.3l22.9,22.9
			v-14.3L31.2,79.8l-1.5-17.3l25.8,25.8v-14l-23.9-24l-3.2-3.2l-1.5-17.3l7.3,7.3L61.1,64l0,0l26.9-26.9l7.3-7.3l-1.5,17.3
			L66.7,74.2v14l25.8-25.8l-1.5,17.3l-22,22l-2.3,2.3v14.4l22.9-23l-1.5,17.3L69,131.9l-2.3,2.3v14.1l0,0l6.2-6.2l13.9-13.9
			l-0.9,10.4l-0.6,6.9l-5.9,5.9L69,161.9l-0.7,0.7l-1.6,1.6v7.3c0.6,11.5,10.4,20.4,21.9,19.8c1.1-0.1,2.2-0.2,3.3-0.4l0,0
			c1.4-0.4,2.6-0.9,3.6-1.2l3.1-36.7l0,0l1-11.9V141l0,0l1-11.4l8.4-97.7l1.3-15.7l-1.2-0.3c-7-1.9-22.1-4.7-48-4.7S20,14.1,13,15.9
			l-1.2,0.3l1.3,15.7l13.5,157.8c8.3,2.9,16.9,4.9,25.7,5.7c3.2,4.6,7.3,8.5,12.1,11.5c-1.1,0-2.2,0.1-3.3,0.1
			c-14.4,0-28.7-2.8-42-8.2l-3-1.4L0.9,19.6L0,8.9l3.6-1.6L4.1,7c3.1-1.2,19.5-7,57-7s53.9,5.8,57,7l0.5,0.2L122.2,8.9z"/>
	</g>
</g>
</svg>
