<svg xmlns="http://www.w3.org/2000/svg" viewBox="0 0 555.13 190.18"><defs><style>.cls-1{fill:#343434;}</style></defs><title>Middel 2</title><g id="Laag_2" data-name="Laag 2"><g id="Laag_1-2" data-name="Laag 1"><path class="cls-1" d="M199.88,101.7a20.42,20.42,0,0,0-12.35-6.78,17.25,17.25,0,0,0,13.76-17.49A16.91,16.91,0,0,0,194,63q-7.27-5.31-19.91-5.3H139v79h36.11q13.53,0,21.38-5.81t7.84-16A19.74,19.74,0,0,0,199.88,101.7ZM154.13,70.78h19.18c3.91-.08,7,.71,9.2,2.37a8.23,8.23,0,0,1,3.32,7,8.68,8.68,0,0,1-3.32,7.23c-2.23,1.72-5.29,2.59-9.2,2.59H154.13Zm30.46,50.1c-2.71,1.87-6.47,2.78-11.28,2.7H154.13V102.71h19.18q7.22-.12,11.28,2.65a8.71,8.71,0,0,1,4.07,7.61A9.08,9.08,0,0,1,184.59,120.88Z"/><path class="cls-1" d="M267,107.22q0-14.89-7.28-23.13T238,75.85a32.19,32.19,0,0,0-15.91,3.9,27.43,27.43,0,0,0-10.89,10.89,32.32,32.32,0,0,0-3.9,16,32.49,32.49,0,0,0,3.84,16A26.85,26.85,0,0,0,222,133.4a33.53,33.53,0,0,0,16.3,3.84,37,37,0,0,0,14.39-2.71,30.55,30.55,0,0,0,11-7.68l-7.9-8.23a21.47,21.47,0,0,1-7.39,5,22.89,22.89,0,0,1-8.86,1.76,16.83,16.83,0,0,1-17.26-13.77h44.56C266.92,110.65,267,109.18,267,107.22Zm-45-5.41a17.2,17.2,0,0,1,5.36-10.67,15.55,15.55,0,0,1,10.78-3.89q6.87,0,11,4a14.67,14.67,0,0,1,4.41,10.61Z"/><path class="cls-1" d="M328.11,107.22q0-14.89-7.28-23.13t-21.72-8.24a32.27,32.27,0,0,0-15.91,3.9,27.47,27.47,0,0,0-10.88,10.89,32.32,32.32,0,0,0-3.89,16,32.28,32.28,0,0,0,3.84,16,26.77,26.77,0,0,0,10.88,10.78,33.58,33.58,0,0,0,16.3,3.84,36.9,36.9,0,0,0,14.39-2.71,30.46,30.46,0,0,0,11-7.68L317,118.62a21.47,21.47,0,0,1-7.39,5,23,23,0,0,1-8.86,1.76,16.83,16.83,0,0,1-17.27-13.77H328C328.08,110.65,328.11,109.18,328.11,107.22Zm-45-5.41a17.25,17.25,0,0,1,5.36-10.67,15.59,15.59,0,0,1,10.78-3.89q6.88,0,11.06,4a14.61,14.61,0,0,1,4.39,10.61Z"/><path class="cls-1" d="M358.08,79a21.74,21.74,0,0,0-8.3,9V76.31H335.11v60.36h14.67V107.56q0-8.34,5.58-13.25t15-4.35V75.74A24.28,24.28,0,0,0,358.08,79Z"/><path class="cls-1" d="M375.5,53v83.72h14.67V53Z"/><path class="cls-1" d="M457.53,107.22q0-14.89-7.28-23.13t-21.72-8.24a32.22,32.22,0,0,0-15.91,3.9,27.49,27.49,0,0,0-10.89,10.89,32.42,32.42,0,0,0-3.89,16,32.38,32.38,0,0,0,3.84,16,26.73,26.73,0,0,0,10.89,10.78,33.56,33.56,0,0,0,16.3,3.84,36.94,36.94,0,0,0,14.39-2.71,30.46,30.46,0,0,0,11-7.68l-7.9-8.23a21.47,21.47,0,0,1-7.39,5,22.92,22.92,0,0,1-8.86,1.76,16.81,16.81,0,0,1-17.26-13.77h44.57C457.49,110.65,457.53,109.18,457.53,107.22Zm-45-5.41a17.2,17.2,0,0,1,5.36-10.67,15.58,15.58,0,0,1,10.77-3.89q6.89,0,11.06,4a14.58,14.58,0,0,1,4.4,10.61Z"/><path class="cls-1" d="M503.39,109.31a19.39,19.39,0,0,0-7-5.53A85,85,0,0,0,486,100a45.35,45.35,0,0,1-8.74-3.21,4.76,4.76,0,0,1-2.77-4.35,4.35,4.35,0,0,1,2.21-4,11.66,11.66,0,0,1,5.92-1.29,28.67,28.67,0,0,1,8.63,1.47,42.69,42.69,0,0,1,9.09,4.06l5.3-10.61a36.66,36.66,0,0,0-10.33-4.74,41.85,41.85,0,0,0-11.79-1.69q-9.83,0-16.3,4.68t-6.49,13.6a14.5,14.5,0,0,0,2.82,9.3,17.82,17.82,0,0,0,6.66,5.31,77.47,77.47,0,0,0,9.93,3.55,50.51,50.51,0,0,1,9.14,3.5,5.1,5.1,0,0,1,2.81,4.74,4.61,4.61,0,0,1-2.41,4.23,12.93,12.93,0,0,1-6.49,1.41,32.21,32.21,0,0,1-10.73-2,29.66,29.66,0,0,1-9.7-5.46l-5.08,10.26A32.08,32.08,0,0,0,468.93,135a43.16,43.16,0,0,0,13.65,2.21q10.26,0,17-4.75T506.39,119Q506.39,113,503.39,109.31Z"/><path class="cls-1" d="M552.13,109.31a19.31,19.31,0,0,0-7-5.53A84.81,84.81,0,0,0,534.71,100,45.24,45.24,0,0,1,526,96.79a4.76,4.76,0,0,1-2.76-4.35,4.34,4.34,0,0,1,2.2-4,11.7,11.7,0,0,1,5.93-1.29A28.72,28.72,0,0,1,540,88.61,42.61,42.61,0,0,1,549,92.67l5.3-10.61A36.73,36.73,0,0,0,544,77.32a42,42,0,0,0-11.79-1.69q-9.83,0-16.31,4.68t-6.49,13.6a14.5,14.5,0,0,0,2.82,9.3,17.9,17.9,0,0,0,6.66,5.31,77.47,77.47,0,0,0,9.93,3.55,50.21,50.21,0,0,1,9.14,3.5,5.1,5.1,0,0,1,2.82,4.74,4.6,4.6,0,0,1-2.42,4.23,12.91,12.91,0,0,1-6.49,1.41,32.11,32.11,0,0,1-10.72-2,29.71,29.71,0,0,1-9.71-5.46l-5.08,10.26A32.08,32.08,0,0,0,517.67,135a43.18,43.18,0,0,0,13.66,2.21q10.24,0,17-4.75T555.13,119Q555.13,113,552.13,109.31Z"/><path class="cls-1" d="M112.27,8.14l-.85,9.9-9,105.87-1,12.23h0l0,.17L99.61,156.5v.09l-.31,3.65v.09l-1.72,20.19v.16h0l-.07.69-2.75,1.24c-.11,0-.64.29-1.53.64l0,0-.65.25-.75.29-.56.2a1.69,1.69,0,0,1-.27.1l-.08,0-1.16.41-.52.17h0l-.51.18-1.42.45A29.45,29.45,0,0,1,62,179.7,29.28,29.28,0,0,1,51,156.79V151L33.83,133.83l-1.36-15.9L51,136.43V123.34L31.25,103.63,29.9,87.73,51,108.81V95.64L28.67,73.32l-1.36-15.9L51,81.09V68.19l-22-22-2.9-2.9L24.75,27.4l6.69,6.69L56.13,58.78h0l24.69-24.7,6.68-6.68-1.35,15.9L61.27,68.19V81L85,57.37l-1.36,15.9L63.38,93.48l-2.11,2.1v13.28l21.09-21.1L81,103.66,63.41,121.25l-2.16,2.15v13l0,0L67,130.67l12.79-12.79L79,127.47l-.53,6.31L73,139.2l-9.62,9.63-.66.66-1.45,1.44v6.72a19.2,19.2,0,0,0,23.17,17.8h0c1.29-.4,2.4-.79,3.29-1.11l2.88-33.68h0l.93-10.92v-.1h0l.89-10.51,7.67-89.79,1.23-14.41-1.07-.3C93.86,12.92,80,10.28,56.13,10.28S18.39,12.92,12,14.61l-1.07.3,1.23,14.41,12.38,145a96.88,96.88,0,0,0,23.59,5.21,39.92,39.92,0,0,0,11.1,10.61c-1,0-2,0-3.06,0a102.39,102.39,0,0,1-38.59-7.56l-2.76-1.24L.85,18,0,8.14l3.3-1.5.49-.2C6.6,5.31,21.66,0,56.13,0s49.52,5.3,52.35,6.44l.48.2Z"/></g></g></svg>