<svg xmlns="http://www.w3.org/2000/svg" viewBox="0 0 603.99 206.92"><defs><style>.cls-1{fill:#fff;}</style></defs><title>Middel 11</title><g id="Laag_2" data-name="Laag 2"><g id="Laag_1-2" data-name="Laag 1"><path class="cls-1" d="M217.47,110.65q-4.85-5.77-13.44-7.37a18.79,18.79,0,0,0,15-19,18.41,18.41,0,0,0-7.92-15.71q-7.92-5.78-21.67-5.77H151.24V148.7h39.29q14.73,0,23.26-6.32T222.32,125A21.52,21.52,0,0,0,217.47,110.65ZM167.69,77h20.87q6.39-.12,10,2.58a9,9,0,0,1,3.62,7.61,9.42,9.42,0,0,1-3.62,7.86q-3.63,2.82-10,2.82H167.69Zm33.15,54.51c-3,2-7,3-12.28,2.94H167.69V111.75h20.87q7.86-.12,12.28,2.89a9.48,9.48,0,0,1,4.42,8.28A9.87,9.87,0,0,1,200.84,131.52Z"/><path class="cls-1" d="M290.46,116.66q0-16.2-7.92-25.16t-23.63-9a35,35,0,0,0-17.31,4.24,29.89,29.89,0,0,0-11.85,11.85A35.26,35.26,0,0,0,225.51,116a35.32,35.32,0,0,0,4.18,17.37,29.14,29.14,0,0,0,11.85,11.72,36.41,36.41,0,0,0,17.73,4.18,40.2,40.2,0,0,0,15.66-3,33.19,33.19,0,0,0,12-8.35l-8.6-9a23.33,23.33,0,0,1-8,5.46,25,25,0,0,1-9.64,1.91,18.3,18.3,0,0,1-18.78-15h48.49C290.41,120.39,290.46,118.79,290.46,116.66Zm-49-5.89a18.72,18.72,0,0,1,5.83-11.6A17,17,0,0,1,259,94.93q7.48,0,12,4.3t4.79,11.54Z"/><path class="cls-1" d="M357,116.66q0-16.2-7.92-25.16t-23.63-9a35.06,35.06,0,0,0-17.31,4.24,29.93,29.93,0,0,0-11.84,11.85A35.15,35.15,0,0,0,292.05,116a35.21,35.21,0,0,0,4.18,17.37,29.18,29.18,0,0,0,11.84,11.72,36.48,36.48,0,0,0,17.74,4.18,40.11,40.11,0,0,0,15.65-3,33,33,0,0,0,12-8.35l-8.59-9a23.33,23.33,0,0,1-8,5.46,25,25,0,0,1-9.64,1.91,18.3,18.3,0,0,1-18.78-15h48.49C357,120.39,357,118.79,357,116.66Zm-49-5.89a18.72,18.72,0,0,1,5.83-11.6,17,17,0,0,1,11.73-4.24q7.48,0,12,4.3t4.78,11.54Z"/><path class="cls-1" d="M389.59,85.91a23.73,23.73,0,0,0-9,9.76V83h-16V148.7h16V117q0-9.07,6.08-14.42t16.27-4.73V82.41A26.5,26.5,0,0,0,389.59,85.91Z"/><path class="cls-1" d="M408.55,57.61V148.7h16V57.61Z"/><path class="cls-1" d="M497.8,116.66q0-16.2-7.92-25.16t-23.63-9a35,35,0,0,0-17.31,4.24,30,30,0,0,0-11.85,11.85A35.25,35.25,0,0,0,432.86,116,35.32,35.32,0,0,0,437,133.42a29.14,29.14,0,0,0,11.85,11.72,36.45,36.45,0,0,0,17.74,4.18,40.15,40.15,0,0,0,15.65-3,33,33,0,0,0,12-8.35l-8.59-9a23.52,23.52,0,0,1-8,5.46,25,25,0,0,1-9.64,1.91,18.28,18.28,0,0,1-18.78-15h48.49C497.76,120.39,497.8,118.79,497.8,116.66Zm-49-5.89a18.67,18.67,0,0,1,5.83-11.6,16.94,16.94,0,0,1,11.72-4.24q7.48,0,12,4.3t4.79,11.54Z"/><path class="cls-1" d="M547.7,118.93a21.21,21.21,0,0,0-7.67-6,91.38,91.38,0,0,0-11.3-4.11,49.16,49.16,0,0,1-9.51-3.5,5.17,5.17,0,0,1-3-4.73,4.71,4.71,0,0,1,2.4-4.36,12.63,12.63,0,0,1,6.44-1.41,31.35,31.35,0,0,1,9.39,1.6,46.75,46.75,0,0,1,9.89,4.42l5.77-11.54a40,40,0,0,0-11.24-5.16A45.54,45.54,0,0,0,526,82.29q-10.68,0-17.73,5.09t-7.06,14.8q0,6.26,3.06,10.12a19.43,19.43,0,0,0,7.25,5.77,84.31,84.31,0,0,0,10.8,3.87,54.09,54.09,0,0,1,10,3.81,5.55,5.55,0,0,1,3.06,5.15,5,5,0,0,1-2.63,4.61,14.08,14.08,0,0,1-7.06,1.53A35.17,35.17,0,0,1,514,134.89a32.19,32.19,0,0,1-10.55-6l-5.53,11.17a34.87,34.87,0,0,0,12.28,6.81,46.93,46.93,0,0,0,14.85,2.4q11.18,0,18.54-5.16T551,129.43Q551,122.92,547.7,118.93Z"/><path class="cls-1" d="M600.73,118.93a21.12,21.12,0,0,0-7.67-6,91.16,91.16,0,0,0-11.29-4.11,49,49,0,0,1-9.52-3.5,5.18,5.18,0,0,1-3-4.73,4.71,4.71,0,0,1,2.39-4.36,12.67,12.67,0,0,1,6.45-1.41,31.45,31.45,0,0,1,9.39,1.6,46.68,46.68,0,0,1,9.88,4.42l5.77-11.54a40,40,0,0,0-11.23-5.16,45.64,45.64,0,0,0-12.83-1.84q-10.68,0-17.74,5.09t-7.06,14.8q0,6.26,3.07,10.12a19.4,19.4,0,0,0,7.24,5.77,84.31,84.31,0,0,0,10.8,3.87,53.79,53.79,0,0,1,10,3.81,5.56,5.56,0,0,1,3.07,5.15,5,5,0,0,1-2.64,4.61A14.06,14.06,0,0,1,578.7,137,35.11,35.11,0,0,1,567,134.89a32.24,32.24,0,0,1-10.56-6L551,140.11a34.87,34.87,0,0,0,12.28,6.81,46.94,46.94,0,0,0,14.86,2.4q11.16,0,18.53-5.16T604,129.43Q604,122.92,600.73,118.93Z"/><path class="cls-1" d="M122.15,8.86l-.92,10.77L111.4,134.81l-1.13,13.31h0l0,.19-1.88,22v.1l-.34,4v.1l-1.87,22,0,.17h0l-.07.76-3,1.35c-.12.06-.69.31-1.66.69l-.05,0-.71.28-.82.31-.61.22-.29.1-.09,0-1.27.45L97,201h0l-.56.19-1.54.49a32,32,0,0,1-39.42-31.09v-6.34L36.81,145.61l-1.48-17.3,20.13,20.13V134.2L34,112.75l-1.47-17.3,22.94,22.94V104.06L31.19,79.77l-1.47-17.3L55.48,88.23v-14L31.56,50.27l-3.16-3.16-1.47-17.3,7.28,7.28L61.07,64h0L87.94,37.1l7.27-7.27-1.47,17.3L66.67,74.19v14L92.42,62.41l-1.47,17.3-22,22L66.67,104v14.45L89.6,95.49l-1.47,17.3L69,131.92l-2.35,2.34v14.15l0,0,6.22-6.22L86.8,128.26l-.89,10.43-.58,6.86-5.9,5.9L69,161.93l-.72.72-1.57,1.57v7.32a20.88,20.88,0,0,0,25.2,19.36h0c1.4-.44,2.61-.86,3.58-1.22L98.62,153h0l1-11.88V141h0l1-11.43L109,31.9l1.34-15.68-1.16-.32c-7-1.85-22.07-4.71-48.05-4.71S20,14.06,13,15.9l-1.16.32L13.19,31.9,26.66,189.66a105.4,105.4,0,0,0,25.66,5.66A43.38,43.38,0,0,0,64.4,206.87c-1.09,0-2.2.05-3.33.05a111.48,111.48,0,0,1-42-8.23l-3-1.35L.92,19.62,0,8.86,3.6,7.23,4.12,7c3.07-1.23,19.45-7,57-7s53.88,5.77,57,7l.53.22Z"/></g></g></svg>