<svg xmlns="http://www.w3.org/2000/svg" viewBox="0 0 133.44 125.22"><defs><style>.cls-1{fill:#343434;}</style></defs><title>Middel 51</title><g id="Laag_2" data-name="Laag 2"><g id="Laag_1-2" data-name="Laag 1"><path class="cls-1" d="M69.86,104.78l26.47-7.11,34.4-34.42a9,9,0,0,0,2.71-6.06,8.35,8.35,0,0,0-2.68-6.13l-7.17-7.17a8.43,8.43,0,0,0-6.16-2.69,9,9,0,0,0-6,2.71L77,78.33ZM125.66,58,93.09,90.63,84,81.57l32.64-32.65c.85-.84,1.31-.38,1.79.1l7.17,7.18C126.12,56.71,126.55,57.13,125.66,58Z"/><path class="cls-1" d="M0,0V125.22H107V97.29l-7.27,7.27V118H7.27V7.27H68.64V38.34h31v7L107,38.12V34.71h0a3.59,3.59,0,0,0-1-2.59L74.84,1.06A3.65,3.65,0,0,0,72.27,0ZM75.9,12.41,94.58,31.08H75.9Z"/></g></g></svg>